<svg width="106" height="120" viewBox="0 0 106 120" fill="none" xmlns="http://www.w3.org/2000/svg">
<path d="M14.7351 119.768L21.0248 92.2344H24.3874L30.6771 119.768H26.6403L25.4553 113.849H19.957L18.7719 119.768H14.7351ZM24.7057 110.137L22.7292 100.158H22.6496L20.6731 110.137H24.7099H24.7057Z" fill="#333333"/>
<path d="M32.4193 98.7288C32.4193 97.6196 32.6162 96.6414 33.014 95.7901C33.4118 94.9387 33.9394 94.2307 34.5969 93.6617C35.2292 93.1215 35.9495 92.7081 36.7535 92.4257C37.5575 92.1433 38.3699 92 39.1864 92C40.003 92 40.8154 92.1433 41.6194 92.4257C42.4234 92.7081 43.1562 93.1215 43.8137 93.6617C44.446 94.2307 44.9611 94.9387 45.3547 95.7901C45.7525 96.6414 45.9493 97.6196 45.9493 98.7288V113.271C45.9493 114.429 45.7525 115.424 45.3547 116.247C44.9611 117.074 44.446 117.757 43.8137 118.297C43.1521 118.866 42.4234 119.292 41.6194 119.574C40.8154 119.857 40.003 120 39.1864 120C38.3699 120 37.5575 119.857 36.7535 119.574C35.9495 119.292 35.2292 118.866 34.5969 118.297C33.9394 117.757 33.4118 117.074 33.014 116.247C32.6203 115.42 32.4193 114.429 32.4193 113.271V98.7288ZM36.4561 113.271C36.4561 114.225 36.7242 114.929 37.2685 115.379C37.8087 115.829 38.4494 116.054 39.1864 116.054C39.9234 116.054 40.5641 115.829 41.1043 115.379C41.6445 114.929 41.9167 114.225 41.9167 113.271V98.7288C41.9167 97.7752 41.6445 97.0712 41.1043 96.621C40.5641 96.1707 39.9234 95.9456 39.1864 95.9456C38.4494 95.9456 37.8087 96.1707 37.2685 96.621C36.7283 97.0712 36.4561 97.7752 36.4561 98.7288V113.271Z" fill="#333333"/>
<path d="M49.5128 119.768V92.2344H56.0035C60.7522 92.2344 63.1265 94.9275 63.1265 100.318C63.1265 101.943 62.8669 103.322 62.356 104.456C61.841 105.59 60.9364 106.507 59.6467 107.202L63.9976 119.772H59.7262L55.9658 108.017H53.5538V119.772H49.517L49.5128 119.768ZM53.5496 95.9467V104.534H55.8444C56.5563 104.534 57.1216 104.436 57.5445 104.243C57.9675 104.051 58.2941 103.772 58.5328 103.412C58.7422 103.052 58.8887 102.606 58.9683 102.078C59.0479 101.55 59.0855 100.936 59.0855 100.24C59.0855 99.5444 59.0479 98.9305 58.9683 98.4025C58.8887 97.8745 58.7296 97.4161 58.4951 97.0313C57.9926 96.311 57.0462 95.9467 55.6476 95.9467H53.5496Z" fill="#333333"/>
<path d="M68.3066 119.768V95.9467H63.6375V92.2344H77.0125V95.9467H72.3434V119.768H68.3066Z" fill="#333333"/>
<path d="M74.7932 119.768L81.0829 92.2344H84.4455L90.7352 119.768H86.6984L85.5133 113.849H80.0151L78.83 119.768H74.7932ZM84.7638 110.137L82.7872 100.158H82.7077L80.7311 110.137H84.768H84.7638Z" fill="#333333"/>
<path d="M106 91.9997L53.0586 0L19.5199 58.1621L106 91.9997Z" fill="#44739B"/>
<path d="M106 92.0001L44.4822 14.8789L19.5199 58.1625L106 92.0001Z" fill="#487C9F"/>
<path d="M106 91.9997L35.7299 30.0508L19.5199 58.162L106 91.9997Z" fill="#376080"/>
<path d="M106 92.0014L27.5516 44.2383L19.5199 58.1638L106 92.0014Z" fill="#2B4A67"/>
<path d="M0 91.9997L53.0586 0L86.5219 58.1705L0 91.9997Z" fill="#7DBEE8"/>
<path d="M0 91.9991L61.6099 14.8652L86.5261 58.1614L0 91.9991Z" fill="#66A1D7"/>
<path d="M0 91.9997L70.3496 30.0508L86.5261 58.162L0 91.9997Z" fill="#5D91CC"/>
<path d="M0 92.0014L78.5154 44.2383L86.5261 58.1638L0 92.0014Z" fill="#507FAD"/>
<path opacity="0.64" d="M0 91.9997L83.8112 53.4517L53.0586 0L0 91.9997Z" fill="url(#paint0_linear_1704_22539)"/>
<g style="mix-blend-mode:multiply" opacity="0.3">
<path d="M53 71.2751L86.5262 58.1641L92.22 68.0845L53 71.2751Z" fill="#21374C"/>
</g>
<defs>
<linearGradient id="paint0_linear_1704_22539" x1="0" y1="45.9999" x2="83.8112" y2="45.9999" gradientUnits="userSpaceOnUse">
<stop offset="0.16" stop-color="white" stop-opacity="0"/>
<stop offset="0.92" stop-color="white"/>
</linearGradient>
</defs>
</svg>
