<svg width="120" height="52" viewBox="0 0 120 52" fill="none" xmlns="http://www.w3.org/2000/svg">
<path d="M60.2212 51.9998L30.1438 0L11.0896 32.8742L60.2212 51.9998Z" fill="#44739B"/>
<path d="M60.2212 51.9994L25.2714 8.40918L11.0896 32.8738L60.2212 51.9994Z" fill="#487C9F"/>
<path d="M60.2212 51.9999L20.299 16.9854L11.0896 32.8743L60.2212 51.9999Z" fill="#376080"/>
<path d="M60.2212 51.9985L15.6526 25.002L11.0896 32.8729L60.2212 51.9985Z" fill="#2B4A67"/>
<path d="M0 51.9998L30.144 0L49.1554 32.8789L0 51.9998Z" fill="#7DBEE8"/>
<path d="M0 51.9987L35.0022 8.40137L49.1578 32.8731L0 51.9987Z" fill="#66A1D7"/>
<path d="M0 51.9999L39.9675 16.9854L49.1578 32.8743L0 51.9999Z" fill="#5D91CC"/>
<path d="M0 51.9985L44.6067 25.002L49.1578 32.8729L0 51.9985Z" fill="#507FAD"/>
<path opacity="0.64" d="M0 51.9998L47.6154 30.2118L30.144 0L0 51.9998Z" fill="url(#paint0_linear_2945_20653)"/>
<g style="mix-blend-mode:multiply" opacity="0.3">
<path d="M30.1107 40.2846L49.1578 32.874L52.3926 38.4812L30.1107 40.2846Z" fill="#21374C"/>
</g>
<path d="M64.2363 35.5851L68.8512 15.1729H71.3185L75.9335 35.5851H72.9715L72.102 31.1974H68.0677L67.1982 35.5851H64.2363ZM71.552 28.4452L70.1018 21.0474H70.0434L68.5932 28.4452H71.5551H71.552Z" fill="white"/>
<path d="M77.2117 19.9885C77.2117 19.1662 77.3561 18.441 77.648 17.8098C77.9399 17.1787 78.327 16.6537 78.8094 16.232C79.2734 15.8314 79.8018 15.5249 80.3918 15.3156C80.9817 15.1062 81.5778 15 82.1769 15C82.7761 15 83.3721 15.1062 83.9621 15.3156C84.552 15.5249 85.0897 15.8314 85.5721 16.232C86.036 16.6537 86.414 17.1787 86.7028 17.8098C86.9947 18.441 87.1391 19.1662 87.1391 19.9885V30.7697C87.1391 31.6284 86.9947 32.3658 86.7028 32.9757C86.414 33.5886 86.036 34.0954 85.5721 34.4959C85.0866 34.9177 84.552 35.2332 83.9621 35.4426C83.3721 35.652 82.7761 35.7582 82.1769 35.7582C81.5778 35.7582 80.9817 35.652 80.3918 35.4426C79.8018 35.2332 79.2734 34.9177 78.8094 34.4959C78.327 34.0954 77.9399 33.5886 77.648 32.9757C77.3592 32.3627 77.2117 31.6284 77.2117 30.7697V19.9885ZM80.1736 30.7697C80.1736 31.4767 80.3703 31.9986 80.7697 32.3324C81.166 32.6662 81.6361 32.8331 82.1769 32.8331C82.7177 32.8331 83.1878 32.6662 83.5841 32.3324C83.9805 31.9986 84.1802 31.4767 84.1802 30.7697V19.9885C84.1802 19.2815 83.9805 18.7596 83.5841 18.4258C83.1878 18.092 82.7177 17.9251 82.1769 17.9251C81.6361 17.9251 81.166 18.092 80.7697 18.4258C80.3733 18.7596 80.1736 19.2815 80.1736 19.9885V30.7697Z" fill="white"/>
<path d="M89.7538 35.5851V15.1729H94.5163C98.0006 15.1729 99.7427 17.1695 99.7427 21.1658C99.7427 22.3704 99.5522 23.393 99.1774 24.2335C98.7994 25.074 98.1358 25.7537 97.1894 26.2696L100.382 35.5882H97.2478L94.4887 26.8734H92.7189V35.5882H89.7569L89.7538 35.5851ZM92.7158 17.925V24.2912H94.3995C94.9219 24.2912 95.3367 24.2183 95.647 24.0757C95.9573 23.9331 96.197 23.7268 96.3721 23.4597C96.5258 23.1927 96.6333 22.862 96.6917 22.4705C96.7501 22.0791 96.7777 21.6239 96.7777 21.1081C96.7777 20.5923 96.7501 20.1371 96.6917 19.7457C96.6333 19.3542 96.5165 19.0144 96.3445 18.7291C95.9758 18.1951 95.2814 17.925 94.2551 17.925H92.7158Z" fill="white"/>
<path d="M103.543 35.5851V17.925H100.117V15.1729H109.931V17.925H106.505V35.5851H103.543Z" fill="white"/>
<path d="M108.303 35.5851L112.918 15.1729H115.385L120 35.5851H117.038L116.168 31.1974H112.134L111.264 35.5851H108.303ZM115.618 28.4452L114.168 21.0474H114.11L112.659 28.4452H115.621H115.618Z" fill="white"/>
<defs>
<linearGradient id="paint0_linear_2945_20653" x1="0" y1="25.9999" x2="47.6154" y2="25.9999" gradientUnits="userSpaceOnUse">
<stop offset="0.16" stop-color="white" stop-opacity="0"/>
<stop offset="0.92" stop-color="white"/>
</linearGradient>
</defs>
</svg>
