<svg width="24" height="24" viewBox="0 0 24 24" fill="none" xmlns="http://www.w3.org/2000/svg">
    <path d="M17 7H3V8H17V7Z" fill="currentColor"/>
    <path d="M10 3C10.5523 3 11 2.55228 11 2C11 1.44772 10.5523 1 10 1C9.44772 1 9 1.44772 9 2C9 2.55228 9.44772 3 10 3Z" fill="currentColor"/>
    <path d="M17.5 11C13.92 11 11 13.92 11 17.5C11 21.08 13.92 24 17.5 24C21.08 24 24 21.08 24 17.5C24 13.92 21.08 11 17.5 11ZM17.5 23C14.47 23 12 20.53 12 17.5C12 14.47 14.47 12 17.5 12C20.53 12 23 14.47 23 17.5C23 20.53 20.53 23 17.5 23Z" fill="currentColor"/>
    <path d="M18 14H17V17H14V18H17V21H18V18H21V17H18V14Z" fill="currentColor"/>
    <path d="M1.95 23C1.43 23 1 22.57 1 22.05V4.95C1 4.43 1.43 4 1.95 4H3.01C3 4.06 3 4.13 3 4.19V5H17V4.19C17 4.13 17 4.06 16.99 4H18.05C18.57 4 19 4.43 19 4.95V10.15C19.34 10.22 19.68 10.32 20 10.44V4.95C20 3.87 19.13 3 18.05 3H16.64C16.26 2.4 15.58 2 14.81 2H12C12 0.9 11.1 0 10 0C8.9 0 8 0.9 8 2H5.19C4.42 2 3.74 2.4 3.36 3H1.95C0.87 3 0 3.87 0 4.95V22.05C0 23.13 0.87 24 1.95 24H13.77C13.28 23.72 12.83 23.38 12.41 23H1.95ZM10 1C10.55 1 11 1.45 11 2C11 2.55 10.55 3 10 3C9.45 3 9 2.55 9 2C9 1.45 9.45 1 10 1Z" fill="currentColor"/>
    <path d="M13.77 11H3V12H12.41C12.82 11.62 13.28 11.28 13.77 11Z" fill="currentColor"/>
    <path d="M3 15V16H10.15C10.22 15.66 10.32 15.32 10.44 15H3Z" fill="currentColor"/>
    <path d="M3 19V20H10.44C10.33 19.68 10.22 19.34 10.15 19H3Z" fill="currentColor"/>
</svg>
