<svg width="24" height="24" viewBox="0 0 24 24" fill="currentColor" xmlns="http://www.w3.org/2000/svg">
<path d="M17.5 11C13.92 11 11 13.92 11 17.5C11 21.08 13.92 24 17.5 24C21.08 24 24 21.08 24 17.5C24 13.92 21.08 11 17.5 11ZM17.5 23C14.47 23 12 20.53 12 17.5C12 14.47 14.47 12 17.5 12C20.53 12 23 14.47 23 17.5C23 20.53 20.53 23 17.5 23Z" fill="currentColor"/>
<path d="M18 14H17V17H14V18H17V21H18V18H21V17H18V14Z" fill="currentColor"/>
<path d="M17.54 5.75973C17.93 6.14973 17.93 6.77973 17.54 7.16973C17.35 7.35973 17.1 7.45973 16.83 7.45973C16.56 7.45973 16.31 7.35973 16.12 7.16973C15.73 6.77973 15.73 6.14973 16.12 5.75973C16.31 5.56973 16.56 5.46973 16.83 5.46973C17.1 5.46973 17.35 5.56973 17.54 5.75973ZM15.42 5.05973C14.64 5.83973 14.64 7.10973 15.42 7.88973C15.81 8.27973 16.32 8.47973 16.83 8.47973C17.34 8.47973 17.85 8.27973 18.24 7.88973C19.02 7.10973 19.02 5.83973 18.24 5.05973C17.85 4.66973 17.34 4.46973 16.83 4.46973C16.32 4.46973 15.81 4.66973 15.42 5.05973Z" fill="currentColor"/>
<path d="M10.3201 20.6696C10.1301 20.8596 9.88006 20.9596 9.61006 20.9596C9.34006 20.9596 9.09006 20.8596 8.90006 20.6696L2.73006 14.4996C2.54006 14.3096 2.44006 14.0596 2.44006 13.7896C2.44006 13.5196 2.54006 13.2696 2.73006 13.0796L12.5501 3.25965C12.7201 3.08965 12.9501 2.97965 13.2001 2.96965L19.7101 2.62965H19.7601V2.64965C20.0301 2.64965 20.2901 2.75965 20.4801 2.95965C20.6701 3.15965 20.7601 3.41965 20.7501 3.69965L20.4101 10.2096C20.4101 10.3296 20.3701 10.4396 20.3301 10.5496C20.6401 10.6796 20.9401 10.8296 21.2301 10.9896C21.3301 10.7596 21.3901 10.5196 21.4101 10.2696L21.7501 3.75965C21.8201 2.60965 20.9001 1.64965 19.7601 1.64965L19.6501 1.63965L13.1401 1.97965C12.6501 1.99965 12.1801 2.20965 11.8301 2.55965L2.02006 12.3996C1.24006 13.1796 1.24006 14.4496 2.02006 15.2296L8.19006 21.3996C8.58006 21.7896 9.09006 21.9896 9.60006 21.9896C10.1101 21.9896 10.6201 21.7896 11.0101 21.3996L11.0701 21.3396C10.8901 21.0396 10.7201 20.7296 10.5901 20.3996L10.3201 20.6696Z" fill="currentColor"/>
</svg>
