<svg width="24" height="24" viewBox="0 0 24 24" fill="none" xmlns="http://www.w3.org/2000/svg">
<path d="M12 15.6167C12.8606 15.6167 13.5909 15.3142 14.1909 14.7092C14.7909 14.1042 15.0909 13.3678 15.0909 12.5C15.0909 11.6322 14.7909 10.8958 14.1909 10.2908C13.5909 9.68583 12.8606 9.38333 12 9.38333C11.1394 9.38333 10.4091 9.68583 9.80909 10.2908C9.20909 10.8958 8.90909 11.6322 8.90909 12.5C8.90909 13.3678 9.20909 14.1042 9.80909 14.7092C10.4091 15.3142 11.1394 15.6167 12 15.6167ZM12 14.5533C11.4303 14.5533 10.9485 14.3547 10.5545 13.9575C10.1606 13.5603 9.96364 13.0744 9.96364 12.5C9.96364 11.9256 10.1606 11.4397 10.5545 11.0425C10.9485 10.6453 11.4303 10.4467 12 10.4467C12.5697 10.4467 13.0515 10.6453 13.4455 11.0425C13.8394 11.4397 14.0364 11.9256 14.0364 12.5C14.0364 13.0744 13.8394 13.5603 13.4455 13.9575C13.0515 14.3547 12.5697 14.5533 12 14.5533ZM12 18C10.2303 18 8.6303 17.4928 7.2 16.4783C5.7697 15.4639 4.70303 14.1378 4 12.5C4.70303 10.8622 5.7697 9.53611 7.2 8.52167C8.6303 7.50722 10.2303 7 12 7C13.7697 7 15.3697 7.50722 16.8 8.52167C18.2303 9.53611 19.297 10.8622 20 12.5C19.297 14.1378 18.2303 15.4639 16.8 16.4783C15.3697 17.4928 13.7697 18 12 18ZM12 16.9C13.4667 16.9 14.8152 16.4997 16.0455 15.6992C17.2758 14.8986 18.2121 13.8322 18.8545 12.5C18.2121 11.1678 17.2758 10.1014 16.0455 9.30083C14.8152 8.50028 13.4667 8.1 12 8.1C10.5333 8.1 9.18485 8.50028 7.95455 9.30083C6.72424 10.1014 5.78182 11.1678 5.12727 12.5C5.78182 13.8322 6.72424 14.8986 7.95455 15.6992C9.18485 16.4997 10.5333 16.9 12 16.9Z" fill="#5294C3"/>
</svg>
