<svg width="20" height="20" viewBox="0 0 20 20" fill="currentColor" xmlns="http://www.w3.org/2000/svg">
    <path d="M11.5706 1L11.8906 3.21L11.9706 3.78L12.5006 4C13.0206 4.21 13.4906 4.49 13.9606 4.85L14.4106 5.2L14.9406 4.99L17.0206 4.16L18.5906 6.87L16.8306 8.25L16.3806 8.6L16.4506 9.16C16.4906 9.51 16.5106 9.77 16.5106 10.02C16.5106 10.27 16.4906 10.53 16.4506 10.88L16.3806 11.44L16.8306 11.79L18.5906 13.17L17.0206 15.88L14.9406 15.05L14.4206 14.84L13.9706 15.18C13.4706 15.55 12.9906 15.83 12.5006 16.03L11.9706 16.25L11.8906 16.82L11.5706 19.03H8.44058L8.12058 16.82L8.04058 16.25L7.51058 16.03C6.99058 15.82 6.52058 15.54 6.05058 15.18L5.60058 14.83L5.07058 15.04L2.99058 15.87L1.42058 13.16L3.18058 11.78L3.63058 11.43L3.56058 10.87C3.52058 10.53 3.50058 10.26 3.50058 10.01C3.50058 9.76 3.52058 9.49 3.56058 9.15L3.63058 8.59L3.18058 8.24L1.42058 6.86L2.99058 4.15L5.07058 4.98L5.59058 5.19L6.04058 4.85C6.54058 4.48 7.02058 4.2 7.51058 4L8.04058 3.78L8.12058 3.21L8.44058 1H11.5706ZM10.0106 13C11.6606 13 13.0106 11.65 13.0106 10C13.0106 8.35 11.6606 7 10.0106 7C8.36058 7 7.01058 8.35 7.01058 10C7.01058 11.65 8.36058 13 10.0106 13ZM12.0106 0H8.01058C7.76058 0 7.55058 0.18 7.52058 0.42L7.14058 3.07C6.53058 3.32 5.97058 3.66 5.45058 4.05L2.96058 3.05C2.90058 3.03 2.84058 3.02 2.78058 3.02C2.61058 3.02 2.44058 3.11 2.35058 3.27L0.350582 6.73C0.220582 6.95 0.280582 7.22 0.470582 7.37L2.58058 9.02C2.54058 9.34 2.51058 9.67 2.51058 10C2.51058 10.33 2.54058 10.66 2.58058 10.98L0.470582 12.63C0.280582 12.78 0.230582 13.05 0.350582 13.27L2.35058 16.73C2.44058 16.89 2.61058 16.98 2.79058 16.98C2.85058 16.98 2.91058 16.98 2.96058 16.95L5.45058 15.95C5.97058 16.35 6.53058 16.68 7.14058 16.93L7.52058 19.58C7.55058 19.82 7.76058 20 8.01058 20H12.0106C12.2606 20 12.4706 19.82 12.5006 19.58L12.8806 16.93C13.4906 16.68 14.0506 16.34 14.5706 15.95L17.0606 16.95C17.1206 16.97 17.1806 16.98 17.2406 16.98C17.4106 16.98 17.5806 16.89 17.6706 16.73L19.6706 13.27C19.7906 13.05 19.7406 12.78 19.5506 12.63L17.4406 10.98C17.4806 10.66 17.5106 10.34 17.5106 10C17.5106 9.66 17.4806 9.34 17.4406 9.02L19.5506 7.37C19.7406 7.22 19.7906 6.95 19.6706 6.73L17.6706 3.27C17.5806 3.11 17.4106 3.02 17.2306 3.02C17.1706 3.02 17.1106 3.02 17.0606 3.05L14.5706 4.05C14.0506 3.65 13.4906 3.32 12.8806 3.07L12.5006 0.42C12.4706 0.18 12.2606 0 12.0106 0ZM10.0106 12C8.91058 12 8.01058 11.1 8.01058 10C8.01058 8.9 8.91058 8 10.0106 8C11.1106 8 12.0106 8.9 12.0106 10C12.0106 11.1 11.1106 12 10.0106 12Z" fill="currentColor"/>
</svg>
