<svg width="16" height="15" viewBox="0 0 16 15" fill="none" xmlns="http://www.w3.org/2000/svg">
    <path d="M8 0.03125C3.59 0.03125 0 3.39688 0 7.53125V13.1563C0 13.9344 0.67 14.5625 1.5 14.5625H2.5C3.33 14.5625 4 13.9344 4 13.1563V10.3438C4 9.56563 3.33 8.9375 2.5 8.9375H1V7.53125C1 3.9125 4.14 0.96875 8 0.96875C11.86 0.96875 15 3.9125 15 7.53125V8.9375H13.5C12.67 8.9375 12 9.56563 12 10.3438V13.1563C12 13.9344 12.67 14.5625 13.5 14.5625H14.5C15.33 14.5625 16 13.9344 16 13.1563V7.53125C16 3.39688 12.41 0.03125 8 0.03125ZM2.5 9.875C2.78 9.875 3 10.0813 3 10.3438V13.1563C3 13.4188 2.78 13.625 2.5 13.625H1.5C1.22 13.625 1 13.4188 1 13.1563V9.875H2.5ZM15 13.1563C15 13.4188 14.78 13.625 14.5 13.625H13.5C13.22 13.625 13 13.4188 13 13.1563V10.3438C13 10.0813 13.22 9.875 13.5 9.875H15V13.1563Z" fill="currentColor"/>
</svg>
