<svg width="18" height="18" viewBox="0 0 18 18" fill="currentColor" xmlns="http://www.w3.org/2000/svg">
    <path d="M9 18C4.04 18 0 13.96 0 9C0 4.04 4.04 0 9 0C13.96 0 18 4.04 18 9C18 13.96 13.96 18 9 18ZM9 1C4.59 1 1 4.59 1 9C1 13.41 4.59 17 9 17C13.41 17 17 13.41 17 9C17 4.59 13.41 1 9 1Z" fill="currentColor"/>
    <path d="M10.4701 13.3797L10.3601 13.8597C9.90012 14.0497 9.53012 14.1797 9.25012 14.2497C8.97012 14.3197 8.74012 14.3597 8.54012 14.3597C8.14012 14.3597 7.83012 14.2597 7.63012 14.0497C7.43012 13.8397 7.33012 13.5797 7.33012 13.2697C7.33012 13.1497 7.34012 13.0297 7.36012 12.9097C7.38012 12.7797 7.41012 12.6197 7.46012 12.4297L8.26012 9.20973C8.30012 9.02973 8.34012 8.83973 8.38012 8.63973C8.42012 8.43973 8.44012 8.26973 8.44012 8.11973C8.44012 7.83973 8.39012 7.64973 8.30012 7.55973C8.21012 7.46973 8.02012 7.41973 7.73012 7.41973C7.62012 7.41973 7.47012 7.43973 7.29012 7.46973C7.11012 7.49973 6.97012 7.53973 6.87012 7.55973L6.98012 7.07973C7.37012 6.89973 7.73012 6.76973 8.04012 6.68973C8.35012 6.59973 8.60012 6.55973 8.78012 6.55973C9.19012 6.55973 9.49012 6.65973 9.68012 6.85973C9.87012 7.05973 9.96012 7.31973 9.96012 7.65973C9.96012 7.74973 9.96012 7.86973 9.93012 8.02973C9.90012 8.18973 9.88012 8.33973 9.84012 8.49973L9.04012 11.7197C8.99012 11.9197 8.95012 12.1097 8.91012 12.2997C8.87012 12.4897 8.85012 12.6397 8.85012 12.7697C8.85012 13.0597 8.91012 13.2497 9.04012 13.3597C9.17012 13.4697 9.38012 13.5197 9.66012 13.5197C9.76012 13.5197 9.89012 13.5097 10.0701 13.4797C10.2501 13.4497 10.3901 13.4197 10.4801 13.3897L10.4701 13.3797ZM11.0101 3.69973C11.0101 3.98973 10.9201 4.23973 10.7301 4.44973C10.5401 4.65973 10.3101 4.76973 10.0301 4.76973C9.77012 4.76973 9.55012 4.66973 9.36012 4.45973C9.17012 4.25973 9.08012 4.01973 9.08012 3.75973C9.08012 3.47973 9.17012 3.23973 9.36012 3.02973C9.55012 2.81973 9.77012 2.71973 10.0301 2.71973C10.3201 2.71973 10.5501 2.81973 10.7301 3.00973C10.9101 3.19973 11.0001 3.42973 11.0001 3.68973L11.0101 3.69973Z" fill="currentColor"/>
</svg>
