<svg width="24" height="24" viewBox="0 0 24 24" fill="none" xmlns="http://www.w3.org/2000/svg">
<path d="M16.5 10H16V7C16 4.79 14.21 3 12 3C9.79 3 8 4.79 8 7V10H7.5C6.12 10 5 11.12 5 12.5V19.5C5 20.88 6.12 22 7.5 22H16.5C17.88 22 19 20.88 19 19.5V12.5C19 11.12 17.88 10 16.5 10ZM9 7C9 5.35 10.35 4 12 4C13.65 4 15 5.35 15 7V10H9V7ZM18 19.5C18 20.33 17.33 21 16.5 21H7.5C6.67 21 6 20.33 6 19.5V12.5C6 11.67 6.67 11 7.5 11H16.5C17.33 11 18 11.67 18 12.5V19.5Z" fill="black"/>
<path d="M12 18C10.9 18 10 17.1 10 16C10 14.9 10.9 14 12 14C13.1 14 14 14.9 14 16C14 17.1 13.1 18 12 18ZM12 15C11.45 15 11 15.45 11 16C11 16.55 11.45 17 12 17C12.55 17 13 16.55 13 16C13 15.45 12.55 15 12 15Z" fill="black"/>
</svg>
