<svg width="106" height="92" viewBox="0 0 106 92" fill="none" xmlns="http://www.w3.org/2000/svg">
    <path d="M106 91.9997L53.0585 0L19.5198 58.1621L106 91.9997Z" fill="#44739B"/>
    <path d="M106 92.0001L44.4821 14.8789L19.5198 58.1625L106 92.0001Z" fill="#487C9F"/>
    <path d="M106 91.9987L35.7298 30.0498L19.5198 58.1611L106 91.9987Z" fill="#376080"/>
    <path d="M106 92.0004L27.5515 44.2373L19.5198 58.1628L106 92.0004Z" fill="#2B4A67"/>
    <path d="M0 91.9997L53.0586 0L86.5219 58.1705L0 91.9997Z" fill="#7DBEE8"/>
    <path d="M0 92L61.6099 14.8662L86.5261 58.1624L0 92Z" fill="#66A1D7"/>
    <path d="M0 91.9987L70.3496 30.0498L86.5261 58.1611L0 91.9987Z" fill="#5D91CC"/>
    <path d="M0 92.0004L78.5154 44.2373L86.5261 58.1628L0 92.0004Z" fill="#507FAD"/>
    <path opacity="0.64" d="M0 91.9997L83.8112 53.4517L53.0586 0L0 91.9997Z" fill="url(#paint0_linear_1704_42623)"/>
    <g style="mix-blend-mode:multiply" opacity="0.3">
        <path d="M53 71.2741L86.5262 58.1631L92.22 68.0835L53 71.2741Z" fill="#21374C"/>
    </g>
    <defs>
        <linearGradient id="paint0_linear_1704_42623" x1="0" y1="45.9999" x2="83.8112" y2="45.9999" gradientUnits="userSpaceOnUse">
            <stop offset="0.16" stop-color="white" stop-opacity="0"/>
            <stop offset="0.92" stop-color="white"/>
        </linearGradient>
    </defs>
</svg>
