<svg width="20" height="24" viewBox="0 0 20 24" fill="none" xmlns="http://www.w3.org/2000/svg">
    <path d="M18.05 3H16.64C16.26 2.4 15.58 2 14.81 2H12C12 0.9 11.1 0 10 0C8.9 0 8 0.9 8 2H5.19C4.42 2 3.74 2.4 3.36 3H1.95C0.87 3 0 3.87 0 4.95V22.05C0 23.13 0.87 24 1.95 24H18.05C19.13 24 20 23.13 20 22.05V4.95C20 3.87 19.13 3 18.05 3ZM10 1C10.55 1 11 1.45 11 2C11 2.55 10.55 3 10 3C9.45 3 9 2.55 9 2C9 1.45 9.45 1 10 1ZM19 22.05C19 22.57 18.57 23 18.05 23H1.95C1.43 23 1 22.57 1 22.05V4.95C1 4.43 1.43 4 1.95 4H3.01C3 4.06 3 4.13 3 4.19V5H17V4.19C17 4.13 17 4.06 16.99 4H18.05C18.57 4 19 4.43 19 4.95V22.05Z" fill="white"/>
    <path d="M17 7H3V8H17V7Z" fill="white"/>
    <path d="M17 11H3V12H17V11Z" fill="white"/>
    <path d="M17 15H3V16H17V15Z" fill="white"/>
    <path d="M17 19H3V20H17V19Z" fill="white"/>
</svg>
