<svg width="16" height="16" viewBox="0 0 16 16" fill="none" xmlns="http://www.w3.org/2000/svg">
    <path d="M14.73 11.5813L10.72 10.9906C10.25 10.925 9.76004 11.075 9.43004 11.3938L7.86004 12.8563C5.66004 11.6844 3.84004 9.93125 2.63004 7.83125L4.25004 6.32188C4.58004 6.0125 4.74004 5.5625 4.68004 5.13125L4.17004 1.70938C4.06004 1.025 3.42004 0.5 2.68004 0.5H0.120039C0.060039 0.95 0.0400391 1.40938 0.0400391 1.86875C0.0400391 4.2875 0.710039 6.54688 1.90004 8.51563C3.14004 10.5875 4.94004 12.3219 7.12004 13.55C9.29004 14.7688 11.83 15.4625 14.54 15.4625C15.03 15.4625 15.52 15.4438 16 15.3875V12.9781C16 12.275 15.47 11.6938 14.73 11.5813ZM2.13004 6.97813C1.38004 5.38438 1.00004 3.67813 1.00004 1.90625C1.00004 1.74688 1.00004 1.59688 1.01004 1.4375H2.68004C2.93004 1.4375 3.14004 1.61562 3.18004 1.84062L3.69004 5.2625C3.71004 5.40313 3.65004 5.55313 3.54004 5.65625L2.13004 6.97813ZM15 14.5531C12.89 14.6188 10.69 14.2156 8.74004 13.3531L8.79004 13.3063L10.13 12.05C10.25 11.9469 10.41 11.9 10.57 11.9188L14.58 12.5094C14.82 12.5469 15 12.7438 15 12.9781V14.5531Z" fill="currentColor"/>
</svg>
