<svg width="24" height="24" viewBox="0 0 24 24" fill="none" xmlns="http://www.w3.org/2000/svg">
    <g clip-path="url(#clip0_494_7297)">
        <path d="M16.864 11.5483L9.658 7.38732C9.57865 7.34151 9.48864 7.31739 9.39702 7.31738C9.30539 7.31738 9.21538 7.34149 9.13603 7.3873C9.05668 7.43311 8.99078 7.499 8.94496 7.57834C8.89914 7.65769 8.87501 7.74769 8.875 7.83932V16.1613C8.87501 16.2529 8.89914 16.343 8.94496 16.4223C8.99078 16.5016 9.05668 16.5675 9.13603 16.6133C9.21538 16.6591 9.30539 16.6833 9.39702 16.6833C9.48864 16.6832 9.57865 16.6591 9.658 16.6133L16.864 12.4523C16.9433 12.4065 17.0092 12.3406 17.055 12.2613C17.1008 12.1819 17.1249 12.0919 17.1249 12.0003C17.1249 11.9087 17.1008 11.8187 17.055 11.7394C17.0092 11.66 16.9433 11.5941 16.864 11.5483Z" fill="white"/>
    </g>
    <defs>
        <clipPath id="clip0_494_7297">
            <rect width="24" height="24" fill="white"/>
        </clipPath>
    </defs>
</svg>
