<svg width="15" height="15" viewBox="0 0 15 15" fill="none" xmlns="http://www.w3.org/2000/svg">
    <path d="M14.85 14.15L10.58 9.88C11.47 8.84 12 7.48 12 6C12 2.69 9.31 0 6 0C2.69 0 0 2.69 0 6C0 9.31 2.69 12 6 12C7.48 12 8.84 11.47 9.88 10.58L14.15 14.85C14.24 14.95 14.37 15 14.5 15C14.63 15 14.76 14.95 14.85 14.85C15.05 14.66 15.05 14.34 14.85 14.15ZM6 11C3.24 11 1 8.76 1 6C1 3.24 3.24 1 6 1C8.76 1 11 3.24 11 6C11 7.2 10.57 8.31 9.87 9.17C9.66 9.42 9.42 9.66 9.17 9.87C8.31 10.57 7.2 11 6 11Z" fill="currentColor" />
</svg>
