<svg width="24" height="24" viewBox="0 0 24 24" fill="none" xmlns="http://www.w3.org/2000/svg">
    <path d="M12 10C13.1 10 14 10.9 14 12C14 13.1 13.1 14 12 14C10.9 14 10 13.1 10 12C10 10.9 10.9 10 12 10ZM12 9C10.34 9 9 10.34 9 12C9 13.66 10.34 15 12 15C13.66 15 15 13.66 15 12C15 10.34 13.66 9 12 9Z" fill="black"/>
    <path d="M20.59 10H19.75C19.57 9.31 19.3 8.65 18.95 8.05L19.53 7.47C20.1 6.9 20.1 5.96 19.53 5.38L18.62 4.47C18.33 4.19 17.95 4.04 17.57 4.04C17.19 4.04 16.81 4.19 16.53 4.47L15.95 5.05C15.35 4.7 14.69 4.43 14 4.25V3.41C14 2.63 13.37 2 12.59 2H11.41C10.63 2 10 2.63 10 3.41V4.25C9.31 4.43 8.65 4.7 8.05 5.05L7.47 4.47C7.19 4.19 6.81 4.04 6.43 4.04C6.05 4.04 5.67 4.19 5.38 4.47L4.47 5.38C3.9 5.96 3.9 6.9 4.47 7.47L5.05 8.05C4.7 8.65 4.43 9.31 4.25 10H3.41C2.63 10 2 10.63 2 11.41V12.59C2 13.37 2.63 14 3.41 14H4.25C4.43 14.69 4.7 15.35 5.05 15.95L4.47 16.53C3.9 17.1 3.9 18.04 4.47 18.62L5.38 19.53C5.67 19.81 6.05 19.96 6.43 19.96C6.81 19.96 7.19 19.81 7.47 19.53L8.05 18.95C8.65 19.3 9.31 19.57 10 19.75V20.59C10 21.37 10.63 22 11.41 22H12.59C13.37 22 14 21.37 14 20.59V19.75C14.69 19.57 15.35 19.3 15.95 18.95L16.53 19.53C16.81 19.81 17.19 19.96 17.57 19.96C17.95 19.96 18.33 19.81 18.62 19.53L19.53 18.62C20.1 18.04 20.1 17.1 19.53 16.53L18.95 15.95C19.3 15.35 19.57 14.69 19.75 14H20.59C21.37 14 22 13.37 22 12.59V11.41C22 10.63 21.37 10 20.59 10ZM21 12.59C21 12.81 20.81 13 20.59 13H18.92C18.88 13.34 18.81 13.68 18.71 14C18.58 14.42 18.42 14.83 18.21 15.21C18.06 15.52 17.88 15.81 17.68 16.09L18.4 16.81L18.82 17.23C18.94 17.35 18.96 17.5 18.96 17.57C18.96 17.65 18.94 17.79 18.82 17.91L17.91 18.82C17.79 18.94 17.65 18.96 17.57 18.96C17.5 18.96 17.35 18.94 17.23 18.82L16.81 18.4L16.09 17.68C15.81 17.88 15.52 18.06 15.21 18.21C14.83 18.42 14.42 18.58 14 18.71C13.68 18.81 13.34 18.88 13 18.92V20.59C13 20.81 12.81 21 12.59 21H11.41C11.19 21 11 20.81 11 20.59V18.92C10.66 18.88 10.32 18.81 10 18.71C9.58 18.58 9.17 18.42 8.79 18.21C8.48 18.06 8.19 17.88 7.91 17.68L7.19 18.4L6.77 18.82C6.65 18.94 6.5 18.96 6.43 18.96C6.35 18.96 6.21 18.94 6.09 18.82L5.18 17.91C5.06 17.79 5.04 17.65 5.04 17.57C5.04 17.5 5.06 17.35 5.18 17.23L5.6 16.81L6.32 16.09C6.12 15.81 5.94 15.52 5.79 15.21C5.58 14.83 5.42 14.42 5.29 14C5.19 13.68 5.12 13.34 5.08 13H3.41C3.19 13 3 12.81 3 12.59V11.41C3 11.19 3.19 11 3.41 11H5.08C5.12 10.66 5.19 10.32 5.29 10C5.42 9.58 5.58 9.17 5.79 8.79C5.94 8.48 6.12 8.19 6.32 7.91L5.6 7.19L5.18 6.77C5.06 6.65 5.04 6.5 5.04 6.43C5.04 6.35 5.06 6.21 5.18 6.09L6.09 5.18C6.21 5.06 6.35 5.04 6.43 5.04C6.5 5.04 6.65 5.06 6.77 5.18L7.19 5.6L7.91 6.32C8.19 6.12 8.48 5.94 8.79 5.79C9.17 5.58 9.58 5.42 10 5.29C10.32 5.19 10.66 5.12 11 5.08V3.41C11 3.19 11.19 3 11.41 3H12.59C12.81 3 13 3.19 13 3.41V5.08C13.34 5.12 13.68 5.19 14 5.29C14.42 5.42 14.83 5.58 15.21 5.79C15.52 5.94 15.81 6.12 16.09 6.32L16.81 5.6L17.23 5.18C17.35 5.06 17.5 5.04 17.57 5.04C17.65 5.04 17.79 5.06 17.91 5.18L18.82 6.09C18.94 6.21 18.96 6.35 18.96 6.43C18.96 6.5 18.94 6.65 18.82 6.77L18.4 7.19L17.68 7.91C17.88 8.19 18.06 8.48 18.21 8.79C18.42 9.17 18.58 9.58 18.71 10C18.81 10.32 18.88 10.66 18.92 11H20.59C20.81 11 21 11.19 21 11.41V12.59Z" fill="black"/>
</svg>