<svg width="10" height="15" viewBox="0 0 10 15" fill="none" xmlns="http://www.w3.org/2000/svg">
    <path fill-rule="evenodd" clip-rule="evenodd" d="M8.86606 4.83448C8.6733 5.03973 8.34341 5.05637 8.12923 4.87164L5.00001 2.17269L1.87077 4.87164C1.65661 5.05637 1.3267 5.03973 1.13394 4.83448C0.941176 4.62922 0.958536 4.31308 1.17274 4.12835L4.65097 1.12837C4.84941 0.95721 5.15061 0.95721 5.34903 1.12837L8.82728 4.12835C9.04146 4.31308 9.05882 4.62923 8.86606 4.83448Z" fill="#8774FB" stroke="#8774FB"/>
    <path fill-rule="evenodd" clip-rule="evenodd" d="M1.13394 11.1655C1.3267 10.9603 1.65659 10.9436 1.87077 11.1284L4.99999 13.8273L8.12923 11.1284C8.34339 10.9436 8.6733 10.9603 8.86606 11.1655C9.05882 11.3708 9.04146 11.6869 8.82726 11.8716L5.34903 14.8716C5.15059 15.0428 4.84939 15.0428 4.65097 14.8716L1.17272 11.8716C0.95854 11.6869 0.941177 11.3708 1.13394 11.1655Z" fill="black" fill-opacity="0.3"/>
</svg>
