<svg width="8" height="13" viewBox="0 0 8 14" fill="none" xmlns="http://www.w3.org/2000/svg">
    <path fill-rule="evenodd" clip-rule="evenodd" d="M7.86606 3.83448C7.6733 4.03973 7.34341 4.05637 7.12923 3.87164L4.00001 1.17269L0.870774 3.87164C0.656614 4.05637 0.326695 4.03973 0.133935 3.83448C-0.0588242 3.62922 -0.0414641 3.31308 0.172735 3.12835L3.65097 0.12837C3.84941 -0.0427896 4.15061 -0.0427896 4.34903 0.12837L7.82728 3.12835C8.04146 3.31308 8.05882 3.62923 7.86606 3.83448Z" fill="black"/>
    <path fill-rule="evenodd" clip-rule="evenodd" d="M0.133938 10.1655C0.326698 9.96027 0.656587 9.94363 0.870766 10.1284L3.99999 12.8273L7.12923 10.1284C7.34339 9.94363 7.6733 9.96027 7.86606 10.1655C8.05882 10.3708 8.04146 10.6869 7.82726 10.8716L4.34903 13.8716C4.15059 14.0428 3.84939 14.0428 3.65097 13.8716L0.172718 10.8716C-0.0414604 10.6869 -0.0588232 10.3708 0.133938 10.1655Z" fill="black"/>
</svg>
