<svg width="24" height="24" viewBox="0 0 24 24" fill="none" xmlns="http://www.w3.org/2000/svg">
<path d="M7.03992 5.9502C7.30992 5.9502 7.55992 6.0502 7.74992 6.2402C8.13992 6.6302 8.13992 7.2602 7.74992 7.6502C7.55992 7.8402 7.30992 7.9402 7.03992 7.9402C6.76992 7.9402 6.51992 7.8402 6.32992 7.6502C5.93992 7.2602 5.93992 6.6302 6.32992 6.2402C6.51992 6.0502 6.76992 5.9502 7.03992 5.9502ZM7.03992 4.9502C6.52992 4.9502 6.01992 5.1502 5.62992 5.5402C4.84992 6.3202 4.84992 7.5902 5.62992 8.3702C6.01992 8.7602 6.52992 8.9602 7.03992 8.9602C7.54992 8.9602 8.05992 8.7602 8.44992 8.3702C9.22992 7.5902 9.22992 6.3202 8.44992 5.5402C8.05992 5.1502 7.54992 4.9502 7.03992 4.9502Z" fill="black"/>
<path d="M4.10996 3.11012H4.15996L10.67 3.45012C10.92 3.46012 11.15 3.57012 11.32 3.74012L21.14 13.5601C21.33 13.7501 21.43 14.0001 21.43 14.2701C21.43 14.5401 21.33 14.7901 21.14 14.9801L14.97 21.1501C14.78 21.3401 14.53 21.4401 14.26 21.4401C13.99 21.4401 13.74 21.3401 13.55 21.1501L3.74996 11.3401C3.57996 11.1701 3.46996 10.9301 3.45996 10.6901L3.11996 4.18012C3.10996 3.90012 3.19996 3.64012 3.38996 3.44012C3.57996 3.24012 3.83996 3.13012 4.10996 3.13012M4.10996 2.13012C2.96996 2.13012 2.04996 3.09012 2.11996 4.24012L2.45996 10.7501C2.48996 11.2401 2.68996 11.7101 3.03996 12.0601L12.86 21.8801C13.25 22.2701 13.76 22.4701 14.27 22.4701C14.78 22.4701 15.29 22.2701 15.68 21.8801L21.85 15.7101C22.63 14.9301 22.63 13.6601 21.85 12.8801L12.04 3.04012C11.69 2.69012 11.22 2.48012 10.73 2.46012L4.21996 2.12012C4.21996 2.12012 4.14996 2.12012 4.10996 2.12012V2.13012Z" fill="black"/>
</svg>
