<svg width="22" height="22" viewBox="0 0 22 22" fill="none" xmlns="http://www.w3.org/2000/svg">
    <path d="M11.5 11C11.5 11.2761 11.2761 11.5 11 11.5C10.7239 11.5 10.5 11.2761 10.5 11C10.5 10.7239 10.7239 10.5 11 10.5C11.2761 10.5 11.5 10.7239 11.5 11Z" fill="black" stroke="black"/>
    <path d="M19 11C19 6.9 15.9 3.52 11.93 3.06C11.74 2.45 11.18 2 10.5 2C9.74999 2 9.13999 2.54 9.01999 3.26C5.84999 4.07 3.43999 6.76 3.04999 10.08C2.43999 10.27 1.98999 10.83 1.98999 11.51C1.98999 12.26 2.52999 12.87 3.24999 12.99C4.12999 16.45 7.25999 19.01 10.99 19.01C15.4 19.01 18.99 15.42 18.99 11.01L19 11ZM11 18C7.75999 18 5.03999 15.79 4.23999 12.8C4.68999 12.54 4.99999 12.06 4.99999 11.5C4.99999 10.87 4.60999 10.33 4.05999 10.11C4.41999 7.27 6.48999 4.96 9.19999 4.24C9.45999 4.69 9.93999 5 10.5 5C11.13 5 11.67 4.61 11.89 4.06C15.33 4.5 18 7.44 18 11C18 14.86 14.86 18 11 18Z" fill="black"/>
    <path d="M11 6C8.24 6 6 8.24 6 11C6 13.76 8.24 16 11 16C13.76 16 16 13.76 16 11C16 8.24 13.76 6 11 6ZM11 15C8.79 15 7 13.21 7 11C7 8.79 8.79 7 11 7C13.21 7 15 8.79 15 11C15 13.21 13.21 15 11 15Z" fill="black"/>
    <path d="M22 11C22 4.93 17.07 0 11 0C4.93 0 0 4.93 0 11C0 17.07 4.93 22 11 22C12.98 22 14.83 21.47 16.43 20.55C16.7 20.83 17.08 21 17.5 21C18.33 21 19 20.33 19 19.5C19 19.23 18.92 18.97 18.79 18.75C20.77 16.76 22 14.02 22 11ZM11 21C5.49 21 1 16.51 1 11C1 5.49 5.49 1 11 1C16.51 1 21 5.49 21 11C21 13.77 19.86 16.29 18.03 18.1C17.86 18.04 17.69 18 17.5 18C16.67 18 16 18.67 16 19.5C16 19.55 16 19.59 16.01 19.64C14.53 20.5 12.82 21 11 21Z" fill="black"/>
</svg>
