<?xml version="1.0" standalone="no"?>
<!DOCTYPE svg PUBLIC "-//W3C//DTD SVG 1.1//EN" "http://www.w3.org/Graphics/SVG/1.1/DTD/svg11.dtd" >
<svg xmlns="http://www.w3.org/2000/svg">
<metadata>Generated by IcoMoon</metadata>
<defs>
<font id="iconmoon" horiz-adv-x="1024">
<font-face units-per-em="1024" ascent="960" descent="-64" />
<missing-glyph horiz-adv-x="1024" />
<glyph unicode="&#x20;" horiz-adv-x="512" d="" />
<glyph unicode="&#xe900;" glyph-name="InfoCircled" d="M512-64c-282.169 0-512 229.831-512 512s229.831 512 512 512c282.169 0 512-229.831 512-512s-229.831-512-512-512zM512 903.111c-250.88 0-455.111-204.231-455.111-455.111s204.231-455.111 455.111-455.111c250.88 0 455.111 204.231 455.111 455.111s-204.231 455.111-455.111 455.111zM595.632 198.844l-6.258-27.307c-26.168-10.809-47.217-18.204-63.146-22.187s-29.013-6.258-40.391-6.258c-22.756 0-40.391 5.689-51.769 17.636s-17.067 26.738-17.067 44.373c0 6.827 0.569 13.653 1.707 20.48 1.138 7.396 2.844 16.498 5.689 27.307l45.511 183.181c2.276 10.24 4.551 21.049 6.827 32.427s3.413 21.049 3.413 29.582c0 15.929-2.844 26.738-7.964 31.858s-15.929 7.964-32.427 7.964c-6.258 0-14.791-1.138-25.031-2.844s-18.204-3.982-23.893-5.12l6.258 27.307c22.187 10.24 42.667 17.636 60.302 22.187 17.636 5.12 31.858 7.396 42.098 7.396 23.324 0 40.391-5.689 51.2-17.067s15.929-26.169 15.929-45.511c0-5.12 0-11.947-1.707-21.049s-2.844-17.636-5.12-26.738l-45.511-183.181c-2.844-11.378-5.12-22.187-7.396-32.996s-3.413-19.342-3.413-26.738c0-16.498 3.413-27.307 10.809-33.564s19.342-9.102 35.271-9.102c5.689 0 13.084 0.569 23.323 2.276s18.204 3.413 23.324 5.12l-0.569 0.569zM626.352 749.526c0-16.498-5.12-30.72-15.929-42.667s-23.893-18.204-39.822-18.204c-14.79 0-27.306 5.689-38.114 17.636-10.809 11.378-15.929 25.031-15.929 39.822 0 15.929 5.12 29.582 15.929 41.529s23.324 17.636 38.114 17.636c16.498 0 29.582-5.689 39.822-16.498s15.36-23.893 15.36-38.684l0.569-0.569z" />
<glyph unicode="&#xe901;" glyph-name="account" d="M517.1 377.344c84.48 0 153.6 69.12 153.6 153.6v121.856c0 70.656-57.344 128-128 128h-51.199c-70.656 0-128-57.344-128-128v-121.856c0-84.48 69.12-153.6 153.599-153.6zM414.7 652.8c0 42.496 34.304 76.8 76.8 76.8h51.199c42.496 0 76.8-34.304 76.8-76.8v-121.856c0-56.32-46.080-102.4-102.4-102.4s-102.399 46.080-102.399 102.4v121.856zM512 960c-282.624 0-512-229.376-512-512 0-150.016 64.512-285.184 167.936-378.88 14.336-13.312 29.184-25.088 45.056-36.352 83.968-60.928 187.392-96.768 299.008-96.768s222.72 38.4 308.224 103.424c15.872 11.776 30.72 24.064 44.544 37.888 98.304 93.184 159.232 224.768 159.232 370.688 0 282.624-229.376 512-512 512zM512-12.8c-108.032 0-207.36 37.376-286.208 100.352 39.424 115.712 148.992 198.656 277.504 198.656h27.648c126.464 0 233.984-80.384 274.944-192.512-79.872-66.56-182.272-106.496-293.888-106.496zM846.336 131.584c-53.248 120.832-174.592 205.824-315.392 205.824h-27.648c-143.36 0-267.264-88.576-318.464-213.504-82.432 83.456-133.632 198.144-133.632 324.096 0 253.952 206.848 460.8 460.8 460.8s460.8-206.848 460.8-460.8c0-122.368-48.128-233.984-126.464-316.416z" />
<glyph unicode="&#xe902;" glyph-name="active" d="M1024 448c0-282.77-229.23-512-512-512s-512 229.23-512 512c0 282.77 229.23 512 512 512s512-229.23 512-512z" />
<glyph unicode="&#xe903;" glyph-name="agent" d="M383.262 299.286c26.819 0 48.762 21.943 48.762 48.762s-21.943 48.762-48.762 48.762c-26.819 0-48.762-21.943-48.762-48.762s21.943-48.762 48.762-48.762zM627.073 299.286c26.819 0 48.762 21.943 48.762 48.762s-21.943 48.762-48.762 48.762c-26.819 0-48.762-21.943-48.762-48.762s21.943-48.762 48.762-48.762zM1024 423.619v-146.286c0-31.695-20.48-59.002-48.762-68.754v-37.547c0-89.234-72.655-161.89-161.89-161.89h-328.168c-25.844 0-46.324 20.48-46.324 46.324v4.876c0 25.844 20.48 46.324 46.324 46.324h53.638c25.844 0 46.324-20.48 46.324-46.324v-2.438h228.206c62.415 0 113.128 50.712 113.128 113.128v252.587c0 22.43-1.95 44.861-5.364 66.316-31.695 197.486-202.85 348.16-409.112 348.16s-377.417-150.674-409.112-348.16c-3.413-21.455-5.364-43.886-5.364-66.316v-215.040c-7.802-2.926-15.604-4.389-24.381-4.389s-16.579 1.463-24.381 4.389c-28.282 9.752-48.762 37.059-48.762 68.754v146.286c0 34.133 22.918 62.415 54.126 70.217 33.646 222.354 226.255 393.021 457.874 393.021s424.229-170.667 457.874-393.021c31.208-7.802 54.126-36.084 54.126-70.217zM814.324 519.192c-40.96 128.244-160.914 221.379-302.324 221.379-24.381 0-47.787-2.926-70.705-8.29-3.413-0.488-6.827-1.463-10.24-2.438-12.678-2.926-24.869-7.314-37.059-12.19-2.926-0.975-5.851-2.438-8.777-3.901-104.35-45.349-179.444-145.798-189.196-264.29-0.488-8.29-0.975-17.067-0.975-25.844v-22.918c16.579 0.975 33.158 4.389 48.762 8.777 93.623 26.331 166.766 102.888 188.221 198.461 54.613-95.573 157.501-159.939 275.017-159.939 24.381 0 47.787 2.926 70.705 8.29 16.091 3.413 32.183 8.29 47.299 14.629-1.95 16.579-5.851 32.67-10.728 48.274z" />
<glyph unicode="&#xe904;" glyph-name="appieldFilter" d="M917.499 944.125h-811.010c-43.008 0-66.56-49.664-39.936-82.944l76.8-96.256 266.24-332.802v-429.056c0-29.696 24.576-51.2 51.2-51.2 7.68 0 15.36 1.536 23.040 5.632l102.402 51.2c17.408 8.704 28.16 26.624 28.16 45.568v377.856l343.040 429.058c26.624 33.28 3.072 82.944-39.936 82.944zM815.099 764.925h-606.21l-102.4 128h811.010l-102.4-128z" />
<glyph unicode="&#xe905;" glyph-name="arrowDown" d="M511.573 392.533l-168.318 168.318c-8.366 8.366-21.93 8.366-30.296-0.001s-8.364-21.929 0.001-30.295l198.613-198.613 198.613 198.613c8.367 8.366 8.367 21.929 0 30.295-8.363 8.367-21.931 8.367-30.293 0.001l-168.32-168.318z" />
<glyph unicode="&#xe906;" glyph-name="arrowUp" d="M512.427 503.467l168.32-168.32c8.363-8.363 21.926-8.363 30.293 0.004 8.367 8.363 8.367 21.926 0 30.293l-198.613 198.613-198.613-198.613c-8.365-8.367-8.366-21.931-0.001-30.293 8.366-8.367 21.93-8.367 30.296-0.004l168.319 168.32z" />
<glyph unicode="&#xe907;" glyph-name="breaks" d="M823.893 533.333h-55.893v85.333h-597.333v-466.347c0-72.107 58.88-130.987 130.987-130.987h335.36c71.253 0 129.28 57.173 130.987 128h55.893c63.147 0 114.773 51.627 114.773 114.773v154.453c0 63.147-51.627 114.773-114.773 114.773zM637.013 64h-335.36c-48.64 0-88.32 39.68-88.32 88.32v423.68h512v-426.667c-1.707-47.36-40.533-85.333-88.32-85.333zM896 264.107c0-39.68-32.427-72.107-72.107-72.107h-55.893v298.667h55.893c39.68 0 72.107-32.427 72.107-72.107v-154.453zM469.333 661.333h-42.667c0 22.187 11.947 41.813 23.467 61.44 9.813 16.213 19.2 32 19.2 45.227s-9.387 29.013-19.2 45.227c-11.52 19.2-23.467 39.253-23.467 61.44h42.667c0-13.653 9.387-29.013 19.2-45.227 11.52-19.2 23.467-39.253 23.467-61.44s-11.947-41.813-23.467-61.44c-9.813-16.213-19.2-32-19.2-45.227zM341.333 661.333h-42.667c0 22.187 11.947 41.813 23.467 61.44 9.813 16.213 19.2 32 19.2 45.227s-9.387 29.013-19.2 45.227c-11.52 19.2-23.467 39.253-23.467 61.44h42.667c0-13.653 9.387-29.013 19.2-45.227 11.52-19.2 23.467-39.253 23.467-61.44s-11.947-41.813-23.467-61.44c-9.813-16.213-19.2-32-19.2-45.227zM597.333 661.333h-42.667c0 22.187 11.947 41.813 23.467 61.44 9.813 16.213 19.2 32 19.2 45.227s-9.387 29.013-19.2 45.227c-11.52 19.2-23.467 39.253-23.467 61.44h42.667c0-13.653 9.387-29.013 19.2-45.227 11.52-19.2 23.467-39.253 23.467-61.44s-11.947-41.813-23.467-61.44c-9.813-16.213-19.2-32-19.2-45.227z" />
<glyph unicode="&#xe908;" glyph-name="calendar" d="M931.245 838.095h-97.524v48.762h-48.762v-48.762h-585.141v48.762h-48.762v-48.762h-97.524c-26.819 0-48.762-21.943-48.762-48.762v-731.429c0-26.819 21.943-48.762 48.762-48.762h877.712c26.819 0 48.762 21.943 48.762 48.762v731.429c0 26.819-21.943 48.762-48.762 48.762zM931.245 57.905h-877.712v536.381h877.712v-536.381zM53.533 643.048v146.286h97.524v-48.762h48.762v48.762h585.141v-48.762h48.762v48.762h97.524v-146.286h-877.712zM687.436 155.429h97.524c26.819 0 48.762 21.943 48.762 48.762v97.524c0 26.819-21.943 48.762-48.762 48.762h-97.524c-26.819 0-48.762-21.943-48.762-48.762v-97.524c0-26.819 21.943-48.762 48.762-48.762zM687.436 301.714h97.524v-97.524h-97.524v97.524z" />
<glyph unicode="&#xe909;" glyph-name="close" d="M559.36 491.52l377.6-377.6-90.88-90.88-377.6 377.6-377.6-377.6-90.88 90.88 377.6 377.6-377.6 377.6 90.88 90.88 377.6-377.6 377.6 377.6 90.88-90.88-377.6-377.6z" />
<glyph unicode="&#xe90a;" glyph-name="collapse" d="M258.133 416.009l196.267 196.266c3.84 3.84 9.387 5.973 14.933 5.973s11.093-2.133 14.933-5.973c8.533-8.533 8.533-22.187 0-30.293l-144.64-144.639h535.040c11.947 0 21.333-9.387 21.333-21.333s-9.387-21.333-21.333-21.333h-535.040l144.64-144.64c8.533-8.107 8.533-21.76 0-30.293s-21.76-8.107-29.867 0l-196.267 196.267zM192 746.667c11.947 0 21.333-9.387 21.333-21.333v-597.333c0-11.947-9.387-21.333-21.333-21.333s-21.333 9.387-21.333 21.333v597.333c0 11.947 9.387 21.333 21.333 21.333z" />
<glyph unicode="&#xe90b;" glyph-name="comment" d="M784.64 789.333c37.973 0 68.693-30.72 68.693-68.693v-331.52c0-37.973-30.72-68.693-68.693-68.693h-467.2l-12.373-12.8-134.4-138.24v551.253c0 37.973 30.72 68.693 68.693 68.693h544.853zM784.213 832h-544.853c-61.44 0-111.36-49.92-111.36-111.36v-656.64l207.787 213.333h448.853c61.44 0 111.36 49.92 111.36 111.36v331.52c0 61.44-49.92 111.36-111.36 111.36l-0.427 0.427zM725.333 704h-426.667v-42.667h426.667v42.667zM725.333 576h-426.667v-42.667h426.667v42.667zM512 448h-213.333v-42.667h213.333v42.667z" />
<glyph unicode="&#xe90c;" glyph-name="dashboard" d="M358.4 960h-256c-56.32 0-102.4-46.080-102.4-102.4v-102.4c0-56.32 46.080-102.4 102.4-102.4h256c56.32 0 102.4 46.080 102.4 102.4v102.4c0 56.32-46.080 102.4-102.4 102.4zM409.6 755.2c0-28.16-23.040-51.2-51.2-51.2h-256c-28.16 0-51.2 23.040-51.2 51.2v102.4c0 28.16 23.040 51.2 51.2 51.2h256c28.16 0 51.2-23.040 51.2-51.2v-102.4zM921.6 960h-256c-56.32 0-102.4-46.080-102.4-102.4v-307.2c0-56.32 46.080-102.4 102.4-102.4h256c56.32 0 102.4 46.080 102.4 102.4v307.2c0 56.32-46.080 102.4-102.4 102.4zM972.8 550.4c0-28.16-23.040-51.2-51.2-51.2h-256c-28.16 0-51.2 23.040-51.2 51.2v307.2c0 28.16 23.040 51.2 51.2 51.2h256c28.16 0 51.2-23.040 51.2-51.2v-307.2zM921.6 396.8h-256c-56.32 0-102.4-46.080-102.4-102.4v-256c0-56.32 46.080-102.4 102.4-102.4h256c56.32 0 102.4 46.080 102.4 102.4v256c0 56.32-46.080 102.4-102.4 102.4zM972.8 38.4c0-28.16-23.040-51.2-51.2-51.2h-256c-28.16 0-51.2 23.040-51.2 51.2v256c0 28.16 23.040 51.2 51.2 51.2h256c28.16 0 51.2-23.040 51.2-51.2v-256zM358.4 550.4h-256c-56.32 0-102.4-46.080-102.4-102.4v-409.6c0-56.32 46.080-102.4 102.4-102.4h256c56.32 0 102.4 46.080 102.4 102.4v409.6c0 56.32-46.080 102.4-102.4 102.4zM409.6 38.4c0-28.16-23.040-51.2-51.2-51.2h-256c-28.16 0-51.2 23.040-51.2 51.2v409.6c0 28.16 23.040 51.2 51.2 51.2h256c28.16 0 51.2-23.040 51.2-51.2v-409.6zM896 192h-76.8v76.8c0 14.336-11.264 25.6-25.6 25.6s-25.6-11.264-25.6-25.6v-76.8h-76.8c-14.336 0-25.6-11.264-25.6-25.6s11.264-25.6 25.6-25.6h76.8v-76.8c0-14.336 11.264-25.6 25.6-25.6s25.6 11.264 25.6 25.6v76.8h76.8c14.336 0 25.6 11.264 25.6 25.6s-11.264 25.6-25.6 25.6z" />
<glyph unicode="&#xe90d;" glyph-name="dialing" d="M852.907 320h-297.387c-47.36 0-85.76 38.4-85.76 85.76 0 93.867 76.373 170.24 170.24 170.24h129.28c93.867 0 170.24-76.373 170.24-170.24 0-47.36-38.4-85.76-85.76-85.76h-0.853zM639.573 533.333c-70.4 0-127.573-57.173-127.573-127.573 0-23.893 19.627-43.093 43.093-43.093h297.387c23.893 0 43.093 19.627 43.093 43.093 0 70.4-57.173 127.573-127.573 127.573h-128.427zM704 618.667c-58.88 0-106.667 47.787-106.667 106.667v63.573c0 47.36 38.4 85.76 85.76 85.76h41.387c47.36 0 85.76-38.4 85.76-85.76v-63.573c0-58.88-47.787-106.667-106.667-106.667h0.427zM683.093 832c-23.893 0-43.093-19.627-43.093-43.093v-63.573c0-35.413 28.587-64 64-64s64 28.587 64 64v63.573c0 23.893-19.627 43.093-43.093 43.093h-41.813zM756.48 198.4l-171.52 26.88c-20.053 2.987-40.96-3.84-55.040-18.347l-66.987-66.56c-94.293 53.333-171.947 133.547-223.573 229.12l69.12 68.693c14.080 14.080 20.907 34.56 18.347 54.187l-21.76 156.16c-4.693 31.147-32 55.040-63.573 55.040h-110.080c-2.56-20.48-3.413-41.387-3.413-62.293 0-110.506 28.587-213.333 79.36-303.36 52.907-94.72 130.133-173.653 223.147-229.547 93.013-55.467 201.387-87.467 317.44-87.467 20.907 0 41.813 0.853 62.293 3.413v110.080c0 32-22.613 58.453-54.187 63.573l0.427 0.427zM217.6 408.32c-32 72.533-48.213 150.613-48.213 231.253 0 7.253 0 14.080 0.427 21.333h71.253c10.667 0 19.627-8.107 21.333-18.347l21.76-156.16c0.853-6.4-1.707-13.227-6.4-17.92l-60.16-60.16zM768 62.72c-90.453-2.987-184.32 15.36-267.947 54.613l59.307 59.307c5.12 4.693 11.947 6.827 18.773 5.973l171.52-26.88c10.24-1.707 17.92-10.667 17.92-21.333v-71.68h0.427z" />
<glyph unicode="&#xe90e;" glyph-name="endCall" d="M774.818 297.813l-241.493-241.493-241.492 241.493 30.293 29.867 189.865-189.44v480.427h42.667v-480.427l189.867 189.44 30.293-29.867zM192.852 489.387l140.373 102.401c16.213 11.947 26.453 31.573 26.027 52.053v94.72c104.534 28.587 216.321 27.307 320.428-3.84v-97.707c0-20.053 9.387-39.253 25.173-51.627l125.867-95.148c25.6-18.773 61.867-16.213 84.053 5.973l77.227 77.228c-12.8 16.213-26.88 31.573-41.813 46.507-78.080 78.080-171.093 130.56-270.507 158.293-104.533 29.44-214.613 30.72-320.428 4.693-104.96-26.453-203.947-80.64-286.293-162.56-14.933-14.933-29.013-30.293-41.813-46.507l77.653-77.654c22.613-22.613 57.6-25.6 83.627-6.827h0.427zM722.347 721.921c74.24-28.587 140.8-72.107 197.973-129.28 5.12-5.12 9.813-9.813 14.933-15.36l-50.347-50.348c-7.68-7.68-19.627-8.107-28.16-2.133l-125.867 95.148c-5.12 3.84-8.107 10.667-8.107 17.067v85.333l-0.427-0.427zM88.746 576.854c61.867 66.133 141.227 119.467 227.84 150.613v-84.053c0-6.827-3.84-13.227-8.96-17.493l-140.373-102.401c-8.533-5.973-20.053-5.12-27.733 2.56l-50.773 50.774z" />
<glyph unicode="&#xe90f;" glyph-name="eye" d="M512 293.687c36.719 0 67.878 12.907 93.478 38.72s38.4 57.233 38.4 94.259c0 37.026-12.8 68.446-38.4 94.259s-56.759 38.719-93.478 38.719-67.878-12.907-93.479-38.719c-25.6-25.813-38.4-57.233-38.4-94.259s12.8-68.446 38.4-94.259c25.6-25.813 56.76-38.72 93.479-38.72zM512 339.059c-24.307 0-44.864 8.474-61.675 25.421-16.806 16.947-25.21 37.679-25.21 62.187s8.404 45.239 25.21 62.187c16.811 16.947 37.367 25.421 61.675 25.421s44.864-8.474 61.675-25.421c16.806-16.947 25.212-37.679 25.212-62.187s-8.405-45.239-25.212-62.187c-16.811-16.947-37.367-25.421-61.675-25.421zM512 192c-75.507 0-143.774 21.641-204.8 64.926-61.026 43.281-106.537 99.861-136.533 169.741 29.996 69.879 75.507 126.459 136.533 169.742s129.293 64.925 204.8 64.925c75.507 0 143.774-21.641 204.8-64.925s106.539-99.863 136.533-169.742c-29.995-69.879-75.507-126.46-136.533-169.741-61.026-43.285-129.293-64.926-204.8-64.926zM512 238.933c62.579 0 120.115 17.079 172.608 51.234 52.493 34.159 92.442 79.659 119.851 136.499-27.409 56.841-67.358 102.34-119.851 136.498s-110.029 51.235-172.608 51.235c-62.579 0-120.113-17.079-172.606-51.235s-92.703-79.657-120.631-136.498c27.927-56.841 68.137-102.34 120.631-136.499 52.493-34.155 110.027-51.234 172.606-51.234z" />
<glyph unicode="&#xe910;" glyph-name="filter" d="M917.499 892.925l-354.306-442.88v-395.778l-102.4-51.2v446.978l-11.264 13.824-343.040 429.056h811.010zM917.499 944.125h-811.010c-43.008 0-66.56-49.664-39.936-82.944l343.040-429.058v-429.056c0-29.696 24.576-51.2 51.2-51.2 7.68 0 15.36 1.536 23.040 5.632l102.402 51.2c17.408 8.704 28.16 26.624 28.16 45.568v377.856l343.040 429.058c26.624 33.28 3.072 82.944-39.936 82.944z" />
<glyph unicode="&#xe911;" glyph-name="futureCallback" d="M756.48 241.067l-171.52 26.88c-20.053 2.987-40.96-3.84-55.040-18.347l-66.987-66.56c-94.293 53.333-171.947 133.547-223.573 229.12l69.12 68.693c14.080 14.080 20.907 34.56 18.347 54.186l-21.76 156.16c-4.693 31.147-32 55.040-63.573 55.040h-110.080c-2.56-20.48-3.413-41.387-3.413-62.293 0-110.507 28.587-213.333 79.36-303.36 52.907-94.72 130.133-173.653 223.147-229.547 93.013-55.467 201.387-87.467 317.44-87.467 20.907 0 41.813 0.853 62.293 3.413v110.080c0 32-22.613 58.453-54.187 63.573l0.427 0.427zM217.6 450.987c-32 72.533-48.213 150.613-48.213 231.253 0 7.253 0 14.080 0.427 21.333h71.253c10.667 0 19.627-8.107 21.333-18.347l21.76-156.16c0.853-6.4-1.707-13.227-6.4-17.92l-60.16-60.16zM768 105.387c-90.453-2.987-184.32 15.36-267.947 54.613l59.307 59.307c5.12 4.693 11.947 6.827 18.773 5.973l171.52-26.88c10.24-1.707 17.92-10.667 17.92-21.333v-71.68h0.427zM704 874.667c-141.227 0-256-114.773-256-256s114.773-256 256-256c141.227 0 256 114.773 256 256s-114.773 256-256 256zM704 405.333c-117.76 0-213.333 95.573-213.333 213.333s95.573 213.333 213.333 213.333c117.76 0 213.333-95.573 213.333-213.333s-95.573-213.333-213.333-213.333zM725.333 789.333h-42.667v-213.333h170.667v42.667h-128v170.667z" />
<glyph unicode="&#xe912;" glyph-name="headphones" d="M512 926c-282.24 0-512-215.4-512-480v-360.003c0-49.798 42.88-89.997 96-89.997h64c53.12 0 96 40.198 96 89.997v180c0 49.803-42.88 90.003-96 90.003h-96v90c0 231.6 200.96 420 448 420s448-188.4 448-420v-90h-96c-53.12 0-96-40.2-96-90.003v-180c0-49.798 42.88-89.997 96-89.997h64c53.12 0 96 40.198 96 89.997v360.003c0 264.6-229.76 480-512 480zM160 296c17.92 0 32-13.203 32-30.003v-180c0-16.8-14.080-29.997-32-29.997h-64c-17.92 0-32 13.197-32 29.997v210.003h96zM960 85.997c0-16.8-14.080-29.997-32-29.997h-64c-17.92 0-32 13.197-32 29.997v180c0 16.8 14.080 30.003 32 30.003h96v-210.003z" />
<glyph unicode="&#xe913;" glyph-name="history" d="M426.667 661.333h-170.667v-42.667h170.667v42.667zM426.667 789.333h-170.667v-42.667h170.667v42.667zM426.667 533.333h-170.667v-42.667h170.667v42.667zM554.667 405.333h-298.667v-42.667h298.667v42.667zM768 149.333h-512v-42.667h512v42.667zM768 277.333h-512v-42.667h512v42.667zM881.92 863.573c-43.093 33.707-97.707 53.76-156.587 53.76h-490.667c-58.88 0-106.667-47.787-106.667-106.667v-725.333c0-58.88 47.787-106.667 106.667-106.667h554.667c58.88 0 106.667 47.787 106.667 106.667v385.707c52.48 46.507 85.333 114.773 85.333 190.293 0 82.347-38.827 155.733-99.413 202.24zM853.333 85.333c0-35.413-28.587-64-64-64h-554.667c-35.413 0-64 28.587-64 64v725.333c0 35.413 28.587 64 64 64h349.44c-69.12-45.653-114.773-124.16-114.773-213.333 0-141.227 114.773-256 256-256 46.933 0 90.453 12.373 128 34.56v-354.56zM896 533.333c-12.373-16.213-26.453-30.293-42.667-42.667-35.413-26.88-79.787-42.667-128-42.667-117.76 0-213.333 95.573-213.333 213.333s95.573 213.333 213.333 213.333c45.653 0 87.893-14.080 122.453-38.4 18.347-13.227 34.56-29.013 48.213-46.933 26.88-35.413 42.667-79.787 42.667-128s-15.787-92.587-42.667-128zM746.667 832h-42.667v-213.333h170.667v42.667h-128v170.667z" />
<glyph unicode="&#xe914;" glyph-name="holdCall" d="M756.48 241.067l-171.52 26.88c-20.053 2.987-40.96-3.84-55.040-18.347l-66.987-66.56c-94.293 53.333-171.947 133.547-223.573 229.12l69.12 68.693c14.080 14.080 20.907 34.56 18.347 54.186l-21.76 156.16c-4.693 31.147-32 55.040-63.573 55.040h-110.080c-2.56-20.48-3.413-41.387-3.413-62.293 0-110.507 28.587-213.333 79.36-303.36 52.907-94.72 130.133-173.653 223.147-229.547 93.013-55.467 201.387-87.467 317.44-87.467 20.907 0 41.813 0.853 62.293 3.413v110.080c0 32-22.613 58.453-54.187 63.573l0.427 0.427zM217.6 450.987c-32 72.533-48.213 150.613-48.213 231.253 0 7.253 0 14.080 0.427 21.333h71.253c10.667 0 19.627-8.107 21.333-18.347l21.76-156.16c0.853-6.4-1.707-13.227-6.4-17.92l-60.16-60.16zM768 105.387c-90.453-2.987-184.32 15.36-267.947 54.613l59.307 59.307c5.12 4.693 11.947 6.827 18.773 5.973l171.52-26.88c10.24-1.707 17.92-10.667 17.92-21.333v-71.68h0.427zM640 832h-85.333v-256h85.333v256zM810.667 832h-85.333v-256h85.333v256z" />
<glyph unicode="&#xe915;" glyph-name="import" d="M512.001 123.733l219.021 219.022-39.822 39.822-150.754-150.756v728.178h-56.889v-728.178l-150.755 150.756-39.823-39.822 219.022-219.022zM967.111 277.333v-284.444h-910.222v284.444h-56.889v-341.333h1024v341.333h-56.889z" />
<glyph unicode="&#xe916;" glyph-name="lock" d="M704 533.333h-21.333v128c0 94.293-76.373 170.667-170.667 170.667s-170.667-76.373-170.667-170.667v-128h-21.333c-58.88 0-106.667-47.787-106.667-106.667v-298.667c0-58.88 47.787-106.667 106.667-106.667h384c58.88 0 106.667 47.787 106.667 106.667v298.667c0 58.88-47.787 106.667-106.667 106.667zM384 661.333c0 70.4 57.6 128 128 128s128-57.6 128-128v-128h-256v128zM768 128c0-35.413-28.587-64-64-64h-384c-35.413 0-64 28.587-64 64v298.667c0 35.413 28.587 64 64 64h384c35.413 0 64-28.587 64-64v-298.667zM512 192c-46.933 0-85.333 38.4-85.333 85.333s38.4 85.333 85.333 85.333c46.933 0 85.333-38.4 85.333-85.333s-38.4-85.333-85.333-85.333zM512 320c-23.467 0-42.667-19.2-42.667-42.667s19.2-42.667 42.667-42.667c23.467 0 42.667 19.2 42.667 42.667s-19.2 42.667-42.667 42.667z" />
<glyph unicode="&#xe917;" glyph-name="manualCall" d="M756.48 241.067l-171.52 26.88c-20.053 2.987-40.96-3.84-55.040-18.347l-66.987-66.56c-94.293 53.333-171.947 133.547-223.573 229.12l69.12 68.693c14.080 14.080 20.907 34.56 18.347 54.186l-21.76 156.16c-4.693 31.147-32 55.040-63.573 55.040h-110.080c-2.56-20.48-3.413-41.387-3.413-62.293 0-110.507 28.587-213.333 79.36-303.36 52.907-94.72 130.133-173.653 223.147-229.547 93.013-55.467 201.387-87.467 317.44-87.467 20.907 0 41.813 0.853 62.293 3.413v110.080c0 32-22.613 58.453-54.187 63.573l0.427 0.427zM217.6 450.987c-32 72.533-48.213 150.613-48.213 231.253 0 7.253 0 14.080 0.427 21.333h71.253c10.667 0 19.627-8.107 21.333-18.347l21.76-156.16c0.853-6.4-1.707-13.227-6.4-17.92l-60.16-60.16zM768 105.387c-90.453-2.987-184.32 15.36-267.947 54.613l59.307 59.307c5.12 4.693 11.947 6.827 18.773 5.973l171.52-26.88c10.24-1.707 17.92-10.667 17.92-21.333v-71.68h0.427zM640 832h-85.333v-85.333h85.333v85.333zM768 832h-85.333v-85.333h85.333v85.333zM896 832h-85.333v-85.333h85.333v85.333zM640 704h-85.333v-85.333h85.333v85.333zM768 704h-85.333v-85.333h85.333v85.333zM896 704h-85.333v-85.333h85.333v85.333zM640 576h-85.333v-85.333h85.333v85.333zM768 576h-85.333v-85.333h85.333v85.333zM896 576h-85.333v-85.333h85.333v85.333zM768 448h-85.333v-85.333h85.333v85.333z" />
<glyph unicode="&#xe918;" glyph-name="micOff" d="M533.333 874.667c-106.24 0-192-85.76-192-192v-293.12l42.667 42.667v250.453c0 82.347 66.987 149.333 149.333 149.333 67.84 0 125.013-45.227 142.933-107.52l33.707 33.707c-29.44 68.693-97.28 116.48-176.64 116.48zM725.338 591.787l-42.667-42.667v-165.12c0-82.347-66.987-149.333-149.333-149.333-45.227 0-85.76 20.053-113.065 52.053l-30.293-30.293c34.987-39.68 86.185-64.427 143.358-64.427 106.24 0 192 85.76 192 192v207.787zM256 490.667h42.667v-106.667c0-11.52 0.853-23.040 2.987-34.133l-36.267-36.267c-6.4 22.613-9.387 46.080-9.387 70.4v106.667zM810.675 490.667h-42.667v-106.667c0-129.28-105.387-234.667-234.667-234.667-68.693 0-130.56 29.44-173.226 76.8l-30.72-30.293c46.080-49.92 110.506-82.773 182.613-88.32v-86.187h42.667v86.187c68.267 5.12 129.28 34.987 174.933 80.213 49.92 50.347 81.067 119.467 81.067 196.267v106.667zM134.833 122.453l724.055 724.052 30.293-30.293-724.055-724.052-30.293 30.293z" />
<glyph unicode="&#xe919;" glyph-name="micOn" d="M725.333 384c0-106.24-85.76-192-192-192s-192 85.76-192 192v298.667c0 106.24 85.76 192 192 192s192-85.76 192-192v-298.667zM533.333 832c-82.347 0-149.333-66.987-149.333-149.333v-298.667c0-82.347 66.987-149.333 149.333-149.333s149.333 66.987 149.333 149.333v298.667c0 82.347-66.987 149.333-149.333 149.333zM768 384v106.667h42.667v-106.667c0-76.8-31.147-145.92-81.067-196.267-45.653-45.227-106.667-75.093-174.933-80.213v-86.187h-42.667v86.187c-143.36 10.667-256 130.56-256 276.48v106.667h42.667v-106.667c0-129.28 105.387-234.667 234.667-234.667s234.667 105.387 234.667 234.667z" />
<glyph unicode="&#xe91a;" glyph-name="note" horiz-adv-x="853" d="M770.133 832h-60.16c-16.213 25.6-45.227 42.667-78.080 42.667h-119.893c0 46.933-38.4 85.333-85.333 85.333s-85.333-38.4-85.333-85.333h-119.893c-32.853 0-61.867-17.067-78.080-42.667h-60.16c-46.080 0-83.2-37.12-83.2-83.2v-729.6c0-46.080 37.12-83.2 83.2-83.2h686.933c46.080 0 83.2 37.12 83.2 83.2v729.6c0 46.080-37.12 83.2-83.2 83.2zM426.667 917.333c23.467 0 42.667-19.2 42.667-42.667s-19.2-42.667-42.667-42.667c-23.467 0-42.667 19.2-42.667 42.667s19.2 42.667 42.667 42.667zM810.667 19.2c0-22.187-18.347-40.533-40.533-40.533h-686.933c-22.187 0-40.533 18.347-40.533 40.533v729.6c0 22.187 18.347 40.533 40.533 40.533h45.227c-0.427-2.56-0.427-5.547-0.427-8.107v-34.56h597.333v34.56c0 2.56 0 5.547-0.427 8.107h45.227c22.187 0 40.533-18.347 40.533-40.533v-729.6zM725.333 661.333h-597.333v-42.667h597.333v42.667zM725.333 490.667h-597.333v-42.667h597.333v42.667zM725.333 320h-597.333v-42.667h597.333v42.667zM725.333 149.333h-597.333v-42.667h597.333v42.667z" />
<glyph unicode="&#xe91b;" glyph-name="pause" d="M102.4 960h204.8c56.554 0 102.4-45.846 102.4-102.4v-819.2c0-56.554-45.846-102.4-102.4-102.4h-204.8c-56.554 0-102.4 45.846-102.4 102.4v819.2c0 56.554 45.846 102.4 102.4 102.4zM716.8 960h204.8c56.554 0 102.4-45.846 102.4-102.4v-819.2c0-56.554-45.846-102.4-102.4-102.4h-204.8c-56.554 0-102.4 45.846-102.4 102.4v819.2c0 56.554 45.846 102.4 102.4 102.4z" />
<glyph unicode="&#xe91c;" glyph-name="pencil" d="M211.623 243.204l-31.573-117.76-12.8-46.933 46.933 12.8 200.107 53.76 502.186 501.334c16.64 16.64 16.64 43.52 0 60.16l-120.747 120.747c-16.64 16.64-43.52 16.64-60.16 0l-501.759-501.761-22.187-82.347zM765.862 797.445l120.747-120.747-90.453-90.453-120.747 120.747 90.453 90.453zM645.116 676.698l120.747-120.747-373.332-373.334-164.693-43.947 43.947 164.693 373.332 373.334z" />
<glyph unicode="&#xe91d;" glyph-name="phone" d="M942.72 218.797l-256.64 37.805c-30.080 4.198-61.437-5.402-82.557-25.805l-100.48-93.6c-140.8 75.002-257.28 187.203-334.72 321.603l103.68 96.6c21.12 19.8 31.36 48.6 27.52 76.2l-32.64 219c-7.040 43.8-48 77.4-95.36 77.4h-163.84c-3.84-28.8-5.12-58.2-5.12-87.6 0-154.8 42.88-299.4 119.040-425.4 79.36-132.6 194.56-243.601 334.080-322.2 138.88-78.003 301.437-122.4 474.877-122.4 31.36 0 62.72 1.197 93.44 4.8v154.202c0 44.998-33.92 82.195-81.28 89.395zM136.323 513.4c-48 102-72.32 211.2-72.32 324.6 0 10.2 0 19.8 0.64 30h106.88c16 0 29.44-11.4 32-25.8l32.64-219c1.28-9-2.56-18.6-9.6-25.2l-90.24-84.6zM960 28.602c-135.040-4.205-275.84 21.6-400.637 76.8l3.2 2.995 85.757 80.403c7.68 6.598 17.92 9.6 28.16 8.397l256.64-37.798c15.36-2.4 26.88-15.002 26.88-29.997v-100.8z" />
<glyph unicode="&#xe91e;" glyph-name="play" d="M934.094 511.215l-715.544 409.441c-7.879 4.508-16.817 6.881-25.915 6.882s-18.036-2.373-25.915-6.88-14.423-10.991-18.973-18.798c-4.55-7.808-6.946-16.664-6.947-25.68v-818.883c0.001-9.016 2.397-17.873 6.947-25.68 4.55-7.808 11.093-14.291 18.973-18.799s16.818-6.88 25.915-6.88c9.098 0.001 18.037 2.374 25.915 6.882l715.544 409.441c7.878 4.509 14.418 10.993 18.964 18.8 4.548 7.807 6.942 16.663 6.942 25.677s-2.394 17.87-6.942 25.677c-4.547 7.807-11.087 14.291-18.964 18.801z" />
<glyph unicode="&#xe91f;" glyph-name="record" d="M682.667 661.333c-70.4 0-128-57.6-128-128 0-32.427 12.373-62.72 32.853-85.333h-151.040c20.48 22.613 32.853 52.907 32.853 85.333 0 70.4-57.6 128-128 128s-128-57.6-128-128c0-70.4 57.6-128 128-128h341.333c70.4 0 128 57.6 128 128s-57.6 128-128 128zM256 533.333c0 46.933 38.4 85.333 85.333 85.333s85.333-38.4 85.333-85.333c0-46.933-38.4-85.333-85.333-85.333s-85.333 38.4-85.333 85.333zM682.667 448c-46.933 0-85.333 38.4-85.333 85.333s38.4 85.333 85.333 85.333c46.933 0 85.333-38.4 85.333-85.333s-38.4-85.333-85.333-85.333zM810.667 917.333h-597.333c-94.293 0-170.667-76.373-170.667-170.667v-768l151.040 172.8c6.4-0.853 12.8-2.133 19.627-2.133h597.333c94.293 0 170.667 76.373 170.667 170.667v426.667c0 94.293-76.373 170.667-170.667 170.667zM938.667 320c0-70.4-57.6-128-128-128h-597.333c-2.987 0-5.547 0.427-8.533 0.853l-5.973 0.853-22.613 2.56-14.507-17.067-76.373-87.040v654.507c0 70.4 57.6 128 128 128h597.333c70.4 0 128-57.6 128-128v-426.667z" />
<glyph unicode="&#xe920;" glyph-name="refresh" d="M963.844 343.45c-47.36-205.653-231.68-359.253-451.84-359.253-256.426 0-463.786 207.787-464.212 463.787v0.853c0 19.2 1.28 38.4 3.84 56.747l195.84-195.84-30.293-30.293-124.587 124.587c22.613-212.053 201.387-377.173 419.412-377.173s382.72 152.747 415.573 352.853l36.267-36.267zM975.782 452.71v-4.693c0-17.92-0.853-35.413-3.413-52.48l-185.6 185.599 30.293 30.293 113.067-113.065c-24.747 209.065-202.667 370.772-418.133 371.199-208.212-0.427-380.586-150.613-415.146-348.585l-36.267 36.265c49.493 203.52 232.533 354.56 451.412 354.987 254.293-0.427 461.227-205.653 463.787-459.519z" />
<glyph unicode="&#xe921;" glyph-name="rewindBack" d="M67.944 485.163l420.909 240.848c4.635 2.652 9.892 4.048 15.244 4.048s10.61-1.396 15.245-4.047c4.635-2.651 8.484-6.465 11.16-11.058s4.086-9.803 4.086-15.106v-481.696c-0.001-5.303-1.41-10.513-4.086-15.106s-6.525-8.406-11.16-11.058c-4.635-2.651-9.893-4.047-15.245-4.047s-10.609 1.396-15.244 4.048l-420.909 240.848c-4.633 2.653-8.48 6.467-11.155 11.059s-4.083 9.801-4.083 15.104c0 5.303 1.408 10.512 4.083 15.104s6.522 8.406 11.155 11.059zM549.827 485.163l420.907 240.848c4.638 2.652 9.891 4.048 15.246 4.048 5.349 0 10.607-1.396 15.246-4.047 4.632-2.651 8.481-6.465 11.162-11.058 2.674-4.593 4.084-9.803 4.084-15.106v-481.696c0-5.303-1.41-10.513-4.084-15.106-2.68-4.593-6.53-8.406-11.162-11.058-4.638-2.651-9.897-4.047-15.246-4.047-5.355 0-10.607 1.396-15.246 4.048l-420.907 240.848c-4.633 2.653-8.481 6.467-11.156 11.059s-4.083 9.801-4.083 15.104c0 5.303 1.408 10.512 4.083 15.104s6.522 8.406 11.156 11.059z" />
<glyph unicode="&#xe922;" glyph-name="rewindForward" d="M956.055 410.837l-420.907-240.848c-4.635-2.652-9.892-4.048-15.244-4.048s-10.61 1.396-15.245 4.047c-4.635 2.652-8.484 6.465-11.16 11.058s-4.086 9.802-4.086 15.106v481.696c0.001 5.303 1.41 10.513 4.086 15.106s6.525 8.406 11.16 11.058c4.635 2.651 9.893 4.047 15.245 4.047s10.609-1.396 15.244-4.048l420.907-240.848c4.632-2.653 8.481-6.467 11.156-11.059s4.084-9.801 4.084-15.104c0-5.303-1.41-10.512-4.084-15.104s-6.523-8.406-11.156-11.059zM474.173 410.837l-420.908-240.848c-4.635-2.652-9.892-4.048-15.244-4.048s-10.61 1.396-15.245 4.047c-4.635 2.652-8.484 6.465-11.16 11.058s-4.086 9.802-4.086 15.106v481.696c0.001 5.303 1.41 10.513 4.086 15.106s6.525 8.406 11.161 11.058c4.635 2.651 9.893 4.047 15.245 4.047s10.609-1.396 15.244-4.048l420.908-240.848c4.633-2.653 8.481-6.467 11.156-11.059s4.083-9.801 4.083-15.104c0-5.303-1.408-10.512-4.083-15.104s-6.522-8.406-11.156-11.059z" />
<glyph unicode="&#xe923;" glyph-name="rules" d="M384 405.333c0-46.933 38.4-85.333 85.333-85.333h426.667c46.933 0 85.333 38.4 85.333 85.333v42.667c0 46.933-38.4 85.333-85.333 85.333h-426.667c-46.933 0-85.333-38.4-85.333-85.333h-85.333v213.333h298.667c46.933 0 85.333 38.4 85.333 85.333v42.667c0 46.933-38.4 85.333-85.333 85.333h-469.333c-46.933 0-85.333-38.4-85.333-85.333v-42.667c0-46.933 38.4-85.333 85.333-85.333h128v-554.667h128c0-46.933 38.4-85.333 85.333-85.333h426.667c46.933 0 85.333 38.4 85.333 85.333v42.667c0 46.933-38.4 85.333-85.333 85.333h-426.667c-46.933 0-85.333-38.4-85.333-85.333h-85.333v256h85.333zM426.667 448c0 23.467 19.2 42.667 42.667 42.667h426.667c23.467 0 42.667-19.2 42.667-42.667v-42.667c0-23.467-19.2-42.667-42.667-42.667h-426.667c-23.467 0-42.667 19.2-42.667 42.667v42.667zM128 704c-23.467 0-42.667 19.2-42.667 42.667v42.667c0 23.467 19.2 42.667 42.667 42.667h469.333c23.467 0 42.667-19.2 42.667-42.667v-42.667c0-23.467-19.2-42.667-42.667-42.667h-469.333zM469.333 192h426.667c23.467 0 42.667-19.2 42.667-42.667v-42.667c0-23.467-19.2-42.667-42.667-42.667h-426.667c-23.467 0-42.667 19.2-42.667 42.667v42.667c0 23.467 19.2 42.667 42.667 42.667z" />
<glyph unicode="&#xe924;" glyph-name="search" d="M1013.76-5.973l-291.499 291.499c60.757 70.997 96.939 163.84 96.939 264.875 0 225.963-183.637 409.6-409.6 409.6s-409.6-183.637-409.6-409.6c0-225.963 183.637-409.6 409.6-409.6 101.035 0 193.877 36.181 264.875 96.939l291.499-291.499c6.144-6.827 15.019-10.24 23.893-10.24s17.749 3.413 23.893 10.24c13.653 12.971 13.653 34.816 0 47.787zM409.6 209.067c-188.416 0-341.333 152.917-341.333 341.333s152.917 341.333 341.333 341.333c188.416 0 341.333-152.917 341.333-341.333 0-81.92-29.355-157.696-77.141-216.405-14.336-17.067-30.72-33.451-47.787-47.787-58.709-47.787-134.485-77.141-216.405-77.141z" />
<glyph unicode="&#xe925;" glyph-name="sort" d="M794.775 679.535c-14.099-15.013-38.228-16.23-53.894-2.718l-228.88 197.409-228.881-197.409c-15.664-13.512-39.795-12.295-53.895 2.718s-12.829 38.137 2.838 51.648l254.408 219.427c14.514 12.519 36.545 12.519 51.058 0l254.409-219.427c15.666-13.512 16.935-36.636 2.836-51.648zM229.225 216.466c14.099 15.011 38.228 16.228 53.894 2.714l228.88-197.405 228.882 197.405c15.664 13.515 39.795 12.298 53.894-2.714 14.099-15.016 12.829-38.137-2.838-51.646l-254.408-219.429c-14.514-12.522-36.545-12.522-51.058 0l-254.409 219.429c-15.666 13.509-16.936 36.63-2.836 51.646z" />
<glyph unicode="&#xe926;" d="M775.923 629.966c-13.159-14.012-35.68-15.148-50.301-2.537l-213.621 184.248-213.623-184.248c-14.62-12.611-37.142-11.475-50.301 2.537s-11.974 35.594 2.649 48.205l237.447 204.799c13.547 11.685 34.109 11.685 47.654 0l237.449-204.799c14.621-12.611 15.806-34.193 2.647-48.205z" />
<glyph unicode="&#xe927;" d="M248.077 197.769c13.159 14.008 35.68 15.148 50.301 2.533l213.621-184.245 213.623 184.245c14.62 12.616 37.142 11.476 50.301-2.533 13.159-14.015 11.974-35.594-2.649-48.203l-237.447-204.8c-13.547-11.687-34.109-11.687-47.654 0l-237.449 204.8c-14.621 12.609-15.807 34.188-2.647 48.203z" />
<glyph unicode="&#xe928;" d="M775.923 698.233c-13.159-14.012-35.68-15.148-50.301-2.537l-213.621 184.248-213.623-184.248c-14.62-12.611-37.142-11.475-50.301 2.537s-11.974 35.594 2.649 48.205l237.447 204.799c13.547 11.684 34.109 11.684 47.654 0l237.449-204.799c14.621-12.611 15.806-34.193 2.647-48.205z" />
<glyph unicode="&#xe929;" d="M248.077 266.035c13.159 14.010 35.68 15.146 50.301 2.533l213.621-184.245 213.623 184.245c14.62 12.614 37.142 11.478 50.301-2.533 13.159-14.015 11.974-35.594-2.649-48.203l-237.447-204.8c-13.547-11.687-34.109-11.687-47.654 0l-237.449 204.8c-14.621 12.609-15.807 34.188-2.647 48.203z" />
<glyph unicode="&#xe92a;" glyph-name="statistics" d="M372.364 448c0 51.2-41.891 93.091-93.091 93.091s-93.091-41.891-93.091-93.091c0-51.2 41.891-93.091 93.091-93.091s93.091 41.891 93.091 93.091zM232.727 448c0 25.6 20.945 46.545 46.545 46.545s46.545-20.945 46.545-46.545c0-25.6-20.945-46.545-46.545-46.545s-46.545 20.945-46.545 46.545zM744.727 820.364c-51.2 0-93.091-41.891-93.091-93.091s41.891-93.091 93.091-93.091c51.2 0 93.091 41.891 93.091 93.091s-41.891 93.091-93.091 93.091zM744.727 680.727c-25.6 0-46.545 20.945-46.545 46.545s20.945 46.545 46.545 46.545c25.6 0 46.545-20.945 46.545-46.545s-20.945-46.545-46.545-46.545zM907.636 960h-791.273c-64.233 0-116.364-52.131-116.364-116.364v-791.273c0-64.233 52.131-116.364 116.364-116.364h791.273c64.233 0 116.364 52.131 116.364 116.364v791.273c0 64.233-52.131 116.364-116.364 116.364zM977.455 52.364c0-38.633-31.185-69.818-69.818-69.818h-791.273c-38.633 0-69.818 31.185-69.818 69.818v791.273c0 38.633 31.185 69.818 69.818 69.818h791.273c38.633 0 69.818-31.185 69.818-69.818v-791.273zM744.727 261.818c-43.287 0-79.593-29.789-89.833-69.818h-285.789c-10.24 40.029-46.545 69.818-89.833 69.818-51.2 0-93.091-41.891-93.091-93.091s41.891-93.091 93.091-93.091c43.287 0 79.593 29.789 89.833 69.818h285.789c10.24-40.029 46.545-69.818 89.833-69.818 51.2 0 93.091 41.891 93.091 93.091s-41.891 93.091-93.091 93.091zM319.302 145.455c-7.913-13.964-22.807-23.273-40.029-23.273-25.6 0-46.545 20.945-46.545 46.545s20.945 46.545 46.545 46.545c17.222 0 32.116-9.309 40.029-23.273 4.189-6.982 6.516-14.895 6.516-23.273s-2.327-16.291-6.516-23.273zM744.727 122.182c-17.222 0-32.116 9.309-40.029 23.273-4.189 6.982-6.516 14.895-6.516 23.273s2.327 16.291 6.516 23.273c7.913 13.964 22.807 23.273 40.029 23.273 25.6 0 46.545-20.945 46.545-46.545s-20.945-46.545-46.545-46.545zM744.727 541.091c-38.167 0-70.749-23.273-85.178-55.855-58.182 21.876-91.695 66.56-128.931 116.364-39.098 52.131-81.92 108.916-158.72 134.516-4.655 47.476-44.684 84.247-92.625 84.247-51.2 0-93.091-41.891-93.091-93.091s41.891-93.091 93.091-93.091c38.167 0 70.749 23.273 85.178 55.855 58.182-21.876 91.695-66.56 128.931-116.364 39.098-52.131 81.92-108.916 158.72-134.516 4.655-47.476 44.684-84.247 92.625-84.247 51.2 0 93.091 41.891 93.091 93.091s-41.891 93.091-93.091 93.091zM317.905 701.207c-8.378-12.102-22.807-20.48-38.633-20.48-25.6 0-46.545 20.945-46.545 46.545s20.945 46.545 46.545 46.545c18.153 0 33.978-10.705 41.425-26.065 3.258-6.051 5.12-13.033 5.12-20.48 0-9.775-2.793-18.618-7.913-26.065zM744.727 401.455c-18.153 0-33.978 10.705-41.425 26.065-3.258 6.051-5.12 13.033-5.12 20.48 0 9.775 2.793 18.618 7.913 26.065 8.378 12.102 22.807 20.48 38.633 20.48 25.6 0 46.545-20.945 46.545-46.545s-20.945-46.545-46.545-46.545z" />
<glyph unicode="&#xe92b;" d="M723.968 960h-423.936l-300.032-300.032v-423.936l300.032-300.032h423.936l300.032 300.032v423.936l-300.032 300.032z" />
<glyph unicode="&#xe92c;" d="M232.727 494.545h558.545v-93.091h-558.545v93.091z" />
<glyph unicode="&#xe92d;" glyph-name="tracking" d="M535.273 448c0-12.851-10.422-23.273-23.273-23.273s-23.273 10.422-23.273 23.273c0 12.851 10.422 23.273 23.273 23.273s23.273-10.422 23.273-23.273zM884.364 448c0 190.836-144.291 348.16-329.076 369.571-8.844 28.393-34.909 49.338-66.56 49.338-34.91 0-63.302-25.135-68.888-58.647-147.549-37.702-259.724-162.909-277.876-317.44-28.393-8.844-49.338-34.909-49.338-66.56 0-34.909 25.135-63.302 58.647-68.887 40.96-161.047 186.647-280.204 360.262-280.204 205.265 0 372.364 167.098 372.364 372.364l0.465 0.465zM512 122.182c-150.808 0-277.411 102.865-314.648 242.036 20.945 12.102 35.375 34.444 35.375 60.509 0 29.324-18.153 54.458-43.753 64.698 16.756 132.189 113.105 239.709 239.244 273.222 12.102-20.945 34.444-35.375 60.51-35.375 29.324 0 54.458 18.153 64.698 43.753 160.116-20.48 284.393-157.324 284.393-323.025 0-179.665-146.153-325.818-325.818-325.818zM512 680.727c-128.465 0-232.727-104.262-232.727-232.727s104.262-232.727 232.727-232.727c128.465 0 232.727 104.262 232.727 232.727s-104.262 232.727-232.727 232.727zM512 261.818c-102.865 0-186.182 83.316-186.182 186.182s83.316 186.182 186.182 186.182c102.865 0 186.182-83.316 186.182-186.182s-83.316-186.182-186.182-186.182zM1024 448c0 282.531-229.469 512-512 512s-512-229.469-512-512c0-282.531 229.469-512 512-512 92.16 0 178.269 24.669 252.742 67.491 12.567-13.033 30.255-20.945 49.804-20.945 38.633 0 69.818 31.185 69.818 69.818 0 12.567-3.724 24.669-9.775 34.909 92.16 92.625 149.411 220.16 149.411 360.727zM512-17.455c-256.465 0-465.455 208.989-465.455 465.455s208.989 465.455 465.455 465.455c256.465 0 465.455-208.989 465.455-465.455 0-128.931-53.062-246.225-138.24-330.473-7.913 2.793-15.825 4.655-24.669 4.655-38.633 0-69.818-31.185-69.818-69.818 0-2.327 0-4.189 0.465-6.516-68.887-40.029-148.48-63.302-233.193-63.302z" />
<glyph unicode="&#xe92e;" glyph-name="user" d="M516.857 360.755c80.457 0 146.286 65.829 146.286 146.287v116.053c0 67.291-54.613 121.905-121.905 121.905h-48.761c-67.291 0-121.905-54.613-121.905-121.905v-116.053c0-80.458 65.829-146.287 146.285-146.287zM419.333 623.095c0 40.472 32.67 73.143 73.143 73.143h48.761c40.472 0 73.143-32.67 73.143-73.143v-116.053c0-53.639-43.886-97.525-97.524-97.525s-97.523 43.886-97.523 97.525v116.053zM512 915.667c-269.166 0-487.619-218.453-487.619-487.62 0-142.872 61.44-271.604 159.939-360.838 13.653-12.678 27.794-23.893 42.91-34.621 79.97-58.027 178.469-92.16 284.77-92.16s212.114 36.571 293.547 98.499c15.116 11.215 29.257 22.918 42.423 36.084 93.623 88.747 151.65 214.065 151.65 353.036 0 269.167-218.453 487.62-487.619 487.62zM512-10.811c-102.888 0-197.486 35.596-272.579 95.573 37.547 110.202 141.897 189.196 264.29 189.196h26.331c120.442 0 222.842-76.556 261.851-183.345-76.069-63.39-173.592-101.425-279.893-101.425zM830.415 126.698c-50.712 115.078-166.278 196.023-300.373 196.023h-26.331c-136.533 0-254.537-84.358-303.299-203.337-78.507 79.482-127.269 188.709-127.269 308.663 0 241.86 196.998 438.858 438.857 438.858s438.857-196.998 438.857-438.858c0-116.541-45.836-222.842-120.442-301.349z" />
<glyph unicode="&#xe92f;" glyph-name="userSignal" d="M432.333 481.067c93.867 0 170.666 72 170.666 160v126.933c0 73.6-63.715 133.333-142.222 133.333h-56.889c-78.507 0-142.222-59.733-142.222-133.333v-126.933c0-88 76.8-160 170.667-160zM318.556 768c0 44.266 38.116 80 85.333 80h56.889c47.218 0 85.333-35.734 85.333-80v-126.933c0-58.667-51.2-106.667-113.778-106.667s-113.778 48-113.778 106.667v126.933zM447.693 439.444h-30.72c-211.058 0-382.862-161.064-382.862-358.935 0-73.597 63.716-133.33 142.222-133.33h511.999c78.507 0 142.222 59.733 142.222 133.33 0 197.871-171.804 358.935-382.862 358.935zM773.666 80.509c0-44.265-38.116-79.997-85.333-79.997h-511.999c-47.218 0-85.333 35.732-85.333 79.997 0 168.533 146.204 305.601 325.973 305.601h30.72c179.768 0 325.973-137.068 325.973-305.601zM954.027 556.278c-77.369 72.533-77.369 190.933 0 264l40.391-37.867c-55.182-51.733-55.182-136.533 0-188.8l-40.391-37.866v0.533zM833.394 442.644c-143.929 134.933-143.929 355.2 0 490.133l40.391-37.867c-121.742-114.133-121.742-300.267 0-414.933l-40.391-37.867v0.534z" />
</font>
</defs>
</svg>
